<svg xmlns="http://www.w3.org/2000/svg" width="88" height="26" fill="none" data-v-71c375e9><path fill="url(#a)" d="M0 4.483h26.185c1.572 0 2.846 1.49 2.846 3.179v15.282c0 1.688-1.274 3.056-2.846 3.056H2.846C1.274 26 0 24.632 0 22.944V4.483Z" data-v-71c375e9></path><path fill="url(#b)" d="M0 4.483h26.185c1.572 0 2.846 1.49 2.846 3.179v15.282c0 1.688-1.274 3.056-2.846 3.056H2.846C1.274 26 0 24.632 0 22.944V4.483Z" data-v-71c375e9></path><path fill="url(#c)" d="M0 4.483h26.185c1.572 0 2.846 1.49 2.846 3.179v15.282c0 1.688-1.274 3.056-2.846 3.056H2.846C1.274 26 0 24.632 0 22.944V4.483Z" data-v-71c375e9></path><path fill="url(#d)" d="M0 4.483h26.185c1.572 0 2.846 1.49 2.846 3.179v15.282c0 1.688-1.274 3.056-2.846 3.056H2.846C1.274 26 0 24.632 0 22.944V4.483Z" data-v-71c375e9></path><path fill="url(#e)" d="M0 4.483h26.185c1.572 0 2.846 1.49 2.846 3.179v15.282c0 1.688-1.274 3.056-2.846 3.056H2.846C1.274 26 0 24.632 0 22.944V4.483Z" data-v-71c375e9></path><path fill="url(#f)" d="M0 4.483h26.185c1.572 0 2.846 1.49 2.846 3.179v15.282c0 1.688-1.274 3.056-2.846 3.056H2.846C1.274 26 0 24.632 0 22.944V4.483Z" data-v-71c375e9></path><path fill="url(#g)" d="M0 4.483h26.185c1.572 0 2.846 1.49 2.846 3.179v15.282c0 1.688-1.274 3.056-2.846 3.056H2.846C1.274 26 0 24.632 0 22.944V4.483Z" data-v-71c375e9></path><path fill="url(#h)" d="M0 4.483h26.185c1.572 0 2.846 1.49 2.846 3.179v15.282c0 1.688-1.274 3.056-2.846 3.056H2.846C1.274 26 0 24.632 0 22.944V4.483Z" data-v-71c375e9></path><path fill="url(#i)" d="M0 4.483h26.185c1.572 0 2.846 1.49 2.846 3.179v15.282c0 1.688-1.274 3.056-2.846 3.056H2.846C1.274 26 0 24.632 0 22.944V4.483Z" data-v-71c375e9></path><path fill="url(#j)" d="M0 4.483h26.185c1.572 0 2.846 1.49 2.846 3.179v15.282c0 1.688-1.274 3.056-2.846 3.056H2.846C1.274 26 0 24.632 0 22.944V4.483Z" data-v-71c375e9></path><path fill="url(#k)" d="M0 4.483h26.185c1.572 0 2.846 1.49 2.846 3.179v15.282c0 1.688-1.274 3.056-2.846 3.056H2.846C1.274 26 0 24.632 0 22.944V4.483Z" data-v-71c375e9></path><path fill="url(#l)" d="M0 4.483h26.185c1.572 0 2.846 1.49 2.846 3.179v15.282c0 1.688-1.274 3.056-2.846 3.056H2.846C1.274 26 0 24.632 0 22.944V4.483Z" data-v-71c375e9></path><path fill="url(#m)" d="M0 4.483h26.185c1.572 0 2.846 1.49 2.846 3.179v15.282c0 1.688-1.274 3.056-2.846 3.056H2.846C1.274 26 0 24.632 0 22.944V4.483Z" data-v-71c375e9></path><path fill="url(#n)" d="M0 4.483h26.185c1.572 0 2.846 1.49 2.846 3.179v15.282c0 1.688-1.274 3.056-2.846 3.056H2.846C1.274 26 0 24.632 0 22.944V4.483Z" data-v-71c375e9></path><path fill="url(#o)" d="M0 4.483h26.185c1.572 0 2.846 1.49 2.846 3.179v15.282c0 1.688-1.274 3.056-2.846 3.056H2.846C1.274 26 0 24.632 0 22.944V4.483Z" data-v-71c375e9></path><path fill="url(#p)" d="M0 4.483h26.185c1.572 0 2.846 1.49 2.846 3.179v15.282c0 1.688-1.274 3.056-2.846 3.056H2.846C1.274 26 0 24.632 0 22.944V4.483Z" data-v-71c375e9></path><path fill="url(#q)" d="M0 4.483h26.185c1.572 0 2.846 1.49 2.846 3.179v15.282c0 1.688-1.274 3.056-2.846 3.056H2.846C1.274 26 0 24.632 0 22.944V4.483Z" data-v-71c375e9></path><path fill="url(#r)" d="M0 4.483h26.185c1.572 0 2.846 1.49 2.846 3.179v15.282c0 1.688-1.274 3.056-2.846 3.056H2.846C1.274 26 0 24.632 0 22.944V4.483Z" data-v-71c375e9></path><path fill="url(#s)" d="M0 4.483h26.185c1.572 0 2.846 1.49 2.846 3.179v15.282c0 1.688-1.274 3.056-2.846 3.056H2.846C1.274 26 0 24.632 0 22.944V4.483Z" data-v-71c375e9></path><path fill="url(#t)" d="M0 4.483h26.185c1.572 0 2.846 1.49 2.846 3.179v15.282c0 1.688-1.274 3.056-2.846 3.056H2.846C1.274 26 0 24.632 0 22.944V4.483Z" data-v-71c375e9></path><path fill="url(#u)" d="M0 4.483h26.185c1.572 0 2.846 1.49 2.846 3.179v15.282c0 1.688-1.274 3.056-2.846 3.056H2.846C1.274 26 0 24.632 0 22.944V4.483Z" data-v-71c375e9></path><path fill="url(#v)" d="M0 4.483h26.185c1.572 0 2.846 1.49 2.846 3.179v15.282c0 1.688-1.274 3.056-2.846 3.056H2.846C1.274 26 0 24.632 0 22.944V4.483Z" data-v-71c375e9></path><path fill="url(#w)" d="M0 4.483h26.185c1.572 0 2.846 1.49 2.846 3.179v15.282c0 1.688-1.274 3.056-2.846 3.056H2.846C1.274 26 0 24.632 0 22.944V4.483Z" data-v-71c375e9></path><path fill="url(#x)" fill-rule="evenodd" d="M0 3.362C0 1.834 1.125 0 2.813 0h7.877c2.477 0 4.76 1.92 5.64 4.483H0v-1.12Z" clip-rule="evenodd" data-v-71c375e9></path><path fill="#fff" d="M5.92 10.535 3.63 19.948H5.92l1.719-7.591L8.5 16H7.352l-.286 1.822h1.719l.573 2.125h2.578l-2.865-9.413H5.921ZM12.797 19.948v-9.413h5.73v2.125h-3.439v1.822h3.152v1.822h-3.151v3.645h-2.292ZM19.959 10.535v9.413h2.292v-3.644h2.865v-1.822H22.25V12.66h3.151v-2.125H19.96Z" data-v-71c375e9></path><path fill="#fff" fill-rule="evenodd" d="M41.114 22.414a.82.82 0 0 1-.81-.978L43.72 8.72a.824.824 0 0 1 .81-.652c.4 0 .733.28.81.652l3.416 12.715a.82.82 0 0 1-.81.978c-.4 0-.733-.28-.81-.652l-.703-2.608h-3.806l-.703 2.608a.824.824 0 0 1-.81.652ZM44.53 12.09l-1.493 5.542h2.986L44.53 12.09ZM57.642 22.414a.82.82 0 0 1-.81-.978L60.249 8.72a.824.824 0 0 1 .81-.652c.4 0 .734.28.81.652l3.416 12.715a.82.82 0 0 1-.81.978c-.4 0-.733-.28-.81-.652l-.702-2.608h-3.807l-.703 2.608a.824.824 0 0 1-.81.652Zm3.416-10.324-1.493 5.542h2.987l-1.494-5.542Z" clip-rule="evenodd" data-v-71c375e9></path><path fill="#fff" d="M49.654 8.884c0 .45.37.815.826.815h1.488v11.9c0 .45.37.815.826.815a.82.82 0 0 0 .827-.815v-.016L53.51 9.7h1.597a.82.82 0 0 0 .827-.815.82.82 0 0 0-.827-.815H50.48a.82.82 0 0 0-.826.815ZM67.064 8.884c0-.45.37-.815.826-.815a.82.82 0 0 1 .826.815v11.9h2.37a.82.82 0 0 1 .826.815.82.82 0 0 1-.827.815H67.89a.82.82 0 0 1-.826-.815V8.884Z" data-v-71c375e9></path><path fill="#fff" fill-rule="evenodd" d="M78.082 19.317v-8.151c0-.81-.665-1.467-1.487-1.467-.822 0-1.488.657-1.488 1.467v8.15c0 .81.666 1.468 1.488 1.468s1.487-.657 1.487-1.467ZM76.596 8.069c-1.734 0-3.14 1.386-3.14 3.097v8.15c0 1.711 1.406 3.098 3.14 3.098 1.734 0 3.14-1.387 3.14-3.098v-8.15c0-1.71-1.406-3.097-3.14-3.097Z" clip-rule="evenodd" data-v-71c375e9></path><path fill="#fff" d="M81.719 19.317v-8.151c0-1.71 1.406-3.097 3.14-3.097h1.873a.82.82 0 0 1 .827.815.82.82 0 0 1-.827.815h-2.038c-.73 0-1.323.584-1.323 1.304v8.477c0 .72.593 1.304 1.323 1.304h1.653v-4.565h-.386a.82.82 0 0 1-.826-.815c0-.45.37-.815.826-.815h1.212a.82.82 0 0 1 .826.815V21.6a.82.82 0 0 1-.826.815h-2.314c-1.734 0-3.14-1.387-3.14-3.098Z" data-v-71c375e9></path><path fill="#fff" fill-rule="evenodd" d="M33.566 11.166v8.15c0 1.711 1.406 3.098 3.14 3.098h1.213a.82.82 0 0 0 .826-.815.82.82 0 0 0-.826-.815h-1.377c-.73 0-1.323-.584-1.323-1.304v-8.477c0-.72.592-1.304 1.322-1.304h1.378a.82.82 0 0 0 .826-.815.82.82 0 0 0-.826-.815h-1.212c-1.735 0-3.14 1.386-3.14 3.097Z" clip-rule="evenodd" data-v-71c375e9></path><defs data-v-71c375e9><linearGradient id="a" x1="22.733" x2="6.028" y1="-1.083" y2="30.028" gradientUnits="userSpaceOnUse" data-v-71c375e9><stop offset="0" stop-color="#4BEDB8" data-v-71c375e9></stop><stop offset=".105" stop-color="#20EDBB" data-v-71c375e9></stop><stop offset=".205" stop-color="#22E9C8" data-v-71c375e9></stop><stop offset=".3" stop-color="#24E4D4" data-v-71c375e9></stop><stop offset=".395" stop-color="#28E0E1" data-v-71c375e9></stop><stop offset=".505" stop-color="#23D4E8" data-v-71c375e9></stop><stop offset=".6" stop-color="#32C5F2" data-v-71c375e9></stop><stop offset=".705" stop-color="#46ADF7" data-v-71c375e9></stop><stop offset=".795" stop-color="#549BFF" data-v-71c375e9></stop><stop offset=".9" stop-color="#6783FF" data-v-71c375e9></stop><stop offset="1" stop-color="#7B71FF" data-v-71c375e9></stop></linearGradient><linearGradient id="b" x1="22.733" x2="6.028" y1="-1.083" y2="30.028" gradientUnits="userSpaceOnUse" data-v-71c375e9><stop offset="0" stop-color="#4BEDB8" data-v-71c375e9></stop><stop offset=".105" stop-color="#20EDBB" data-v-71c375e9></stop><stop offset=".205" stop-color="#22E9C8" data-v-71c375e9></stop><stop offset=".3" stop-color="#24E4D4" data-v-71c375e9></stop><stop offset=".395" stop-color="#28E0E1" data-v-71c375e9></stop><stop offset=".505" stop-color="#23D4E8" data-v-71c375e9></stop><stop offset=".6" stop-color="#32C5F2" data-v-71c375e9></stop><stop offset=".705" stop-color="#46ADF7" data-v-71c375e9></stop><stop offset=".795" stop-color="#549BFF" data-v-71c375e9></stop><stop offset=".9" stop-color="#6783FF" data-v-71c375e9></stop><stop offset="1" stop-color="#7B71FF" data-v-71c375e9></stop></linearGradient><linearGradient id="c" x1="22.733" x2="6.028" y1="-1.083" y2="30.028" gradientUnits="userSpaceOnUse" data-v-71c375e9><stop offset="0" stop-color="#4BEDB8" data-v-71c375e9></stop><stop offset=".105" stop-color="#20EDBB" data-v-71c375e9></stop><stop offset=".205" stop-color="#22E9C8" data-v-71c375e9></stop><stop offset=".3" stop-color="#24E4D4" data-v-71c375e9></stop><stop offset=".395" stop-color="#28E0E1" data-v-71c375e9></stop><stop offset=".505" stop-color="#23D4E8" data-v-71c375e9></stop><stop offset=".6" stop-color="#32C5F2" data-v-71c375e9></stop><stop offset=".705" stop-color="#46ADF7" data-v-71c375e9></stop><stop offset=".795" stop-color="#549BFF" data-v-71c375e9></stop><stop offset=".9" stop-color="#6783FF" data-v-71c375e9></stop><stop offset="1" stop-color="#7B71FF" data-v-71c375e9></stop></linearGradient><linearGradient id="d" x1="22.733" x2="6.028" y1="-1.083" y2="30.028" gradientUnits="userSpaceOnUse" data-v-71c375e9><stop offset="0" stop-color="#4BEDB8" data-v-71c375e9></stop><stop offset=".105" stop-color="#20EDBB" data-v-71c375e9></stop><stop offset=".205" stop-color="#22E9C8" data-v-71c375e9></stop><stop offset=".3" stop-color="#24E4D4" data-v-71c375e9></stop><stop offset=".395" stop-color="#28E0E1" data-v-71c375e9></stop><stop offset=".505" stop-color="#23D4E8" data-v-71c375e9></stop><stop offset=".6" stop-color="#32C5F2" data-v-71c375e9></stop><stop offset=".705" stop-color="#46ADF7" data-v-71c375e9></stop><stop offset=".795" stop-color="#549BFF" data-v-71c375e9></stop><stop offset=".9" stop-color="#6783FF" data-v-71c375e9></stop><stop offset="1" stop-color="#7B71FF" data-v-71c375e9></stop></linearGradient><linearGradient id="e" x1="22.733" x2="6.028" y1="-1.083" y2="30.028" gradientUnits="userSpaceOnUse" data-v-71c375e9><stop offset="0" stop-color="#4BEDB8" data-v-71c375e9></stop><stop offset=".105" stop-color="#20EDBB" data-v-71c375e9></stop><stop offset=".205" stop-color="#22E9C8" data-v-71c375e9></stop><stop offset=".3" stop-color="#24E4D4" data-v-71c375e9></stop><stop offset=".395" stop-color="#28E0E1" data-v-71c375e9></stop><stop offset=".505" stop-color="#23D4E8" data-v-71c375e9></stop><stop offset=".6" stop-color="#32C5F2" data-v-71c375e9></stop><stop offset=".705" stop-color="#46ADF7" data-v-71c375e9></stop><stop offset=".795" stop-color="#549BFF" data-v-71c375e9></stop><stop offset=".9" stop-color="#6783FF" data-v-71c375e9></stop><stop offset="1" stop-color="#7B71FF" data-v-71c375e9></stop></linearGradient><linearGradient id="f" x1="22.733" x2="6.028" y1="-1.083" y2="30.028" gradientUnits="userSpaceOnUse" data-v-71c375e9><stop offset="0" stop-color="#4BEDB8" data-v-71c375e9></stop><stop offset=".105" stop-color="#20EDBB" data-v-71c375e9></stop><stop offset=".205" stop-color="#22E9C8" data-v-71c375e9></stop><stop offset=".3" stop-color="#24E4D4" data-v-71c375e9></stop><stop offset=".395" stop-color="#28E0E1" data-v-71c375e9></stop><stop offset=".505" stop-color="#23D4E8" data-v-71c375e9></stop><stop offset=".6" stop-color="#32C5F2" data-v-71c375e9></stop><stop offset=".705" stop-color="#46ADF7" data-v-71c375e9></stop><stop offset=".795" stop-color="#549BFF" data-v-71c375e9></stop><stop offset=".9" stop-color="#6783FF" data-v-71c375e9></stop><stop offset="1" stop-color="#7B71FF" data-v-71c375e9></stop></linearGradient><linearGradient id="g" x1="22.733" x2="6.028" y1="-1.083" y2="30.028" gradientUnits="userSpaceOnUse" data-v-71c375e9><stop offset="0" stop-color="#4BEDB8" data-v-71c375e9></stop><stop offset=".105" stop-color="#20EDBB" data-v-71c375e9></stop><stop offset=".205" stop-color="#22E9C8" data-v-71c375e9></stop><stop offset=".3" stop-color="#24E4D4" data-v-71c375e9></stop><stop offset=".395" stop-color="#28E0E1" data-v-71c375e9></stop><stop offset=".505" stop-color="#23D4E8" data-v-71c375e9></stop><stop offset=".6" stop-color="#32C5F2" data-v-71c375e9></stop><stop offset=".705" stop-color="#46ADF7" data-v-71c375e9></stop><stop offset=".795" stop-color="#549BFF" data-v-71c375e9></stop><stop offset=".9" stop-color="#6783FF" data-v-71c375e9></stop><stop offset="1" stop-color="#7B71FF" data-v-71c375e9></stop></linearGradient><linearGradient id="h" x1="22.733" x2="6.028" y1="-1.083" y2="30.028" gradientUnits="userSpaceOnUse" data-v-71c375e9><stop offset="0" stop-color="#4BEDB8" data-v-71c375e9></stop><stop offset=".105" stop-color="#20EDBB" data-v-71c375e9></stop><stop offset=".205" stop-color="#22E9C8" data-v-71c375e9></stop><stop offset=".3" stop-color="#24E4D4" data-v-71c375e9></stop><stop offset=".395" stop-color="#28E0E1" data-v-71c375e9></stop><stop offset=".505" stop-color="#23D4E8" data-v-71c375e9></stop><stop offset=".6" stop-color="#32C5F2" data-v-71c375e9></stop><stop offset=".705" stop-color="#46ADF7" data-v-71c375e9></stop><stop offset=".795" stop-color="#549BFF" data-v-71c375e9></stop><stop offset=".9" stop-color="#6783FF" data-v-71c375e9></stop><stop offset="1" stop-color="#7B71FF" data-v-71c375e9></stop></linearGradient><linearGradient id="i" x1="22.733" x2="6.028" y1="-1.083" y2="30.028" gradientUnits="userSpaceOnUse" data-v-71c375e9><stop offset="0" stop-color="#4BEDB8" data-v-71c375e9></stop><stop offset=".105" stop-color="#20EDBB" data-v-71c375e9></stop><stop offset=".205" stop-color="#22E9C8" data-v-71c375e9></stop><stop offset=".3" stop-color="#24E4D4" data-v-71c375e9></stop><stop offset=".395" stop-color="#28E0E1" data-v-71c375e9></stop><stop offset=".505" stop-color="#23D4E8" data-v-71c375e9></stop><stop offset=".6" stop-color="#32C5F2" data-v-71c375e9></stop><stop offset=".705" stop-color="#46ADF7" data-v-71c375e9></stop><stop offset=".795" stop-color="#549BFF" data-v-71c375e9></stop><stop offset=".9" stop-color="#6783FF" data-v-71c375e9></stop><stop offset="1" stop-color="#7B71FF" data-v-71c375e9></stop></linearGradient><linearGradient id="j" x1="22.733" x2="6.028" y1="-1.083" y2="30.028" gradientUnits="userSpaceOnUse" data-v-71c375e9><stop offset="0" stop-color="#4BEDB8" data-v-71c375e9></stop><stop offset=".105" stop-color="#20EDBB" data-v-71c375e9></stop><stop offset=".205" stop-color="#22E9C8" data-v-71c375e9></stop><stop offset=".3" stop-color="#24E4D4" data-v-71c375e9></stop><stop offset=".395" stop-color="#28E0E1" data-v-71c375e9></stop><stop offset=".505" stop-color="#23D4E8" data-v-71c375e9></stop><stop offset=".6" stop-color="#32C5F2" data-v-71c375e9></stop><stop offset=".705" stop-color="#46ADF7" data-v-71c375e9></stop><stop offset=".795" stop-color="#549BFF" data-v-71c375e9></stop><stop offset=".9" stop-color="#6783FF" data-v-71c375e9></stop><stop offset="1" stop-color="#7B71FF" data-v-71c375e9></stop></linearGradient><linearGradient id="k" x1="22.733" x2="6.028" y1="-1.083" y2="30.028" gradientUnits="userSpaceOnUse" data-v-71c375e9><stop offset="0" stop-color="#4BEDB8" data-v-71c375e9></stop><stop offset=".105" stop-color="#20EDBB" data-v-71c375e9></stop><stop offset=".205" stop-color="#22E9C8" data-v-71c375e9></stop><stop offset=".3" stop-color="#24E4D4" data-v-71c375e9></stop><stop offset=".395" stop-color="#28E0E1" data-v-71c375e9></stop><stop offset=".505" stop-color="#23D4E8" data-v-71c375e9></stop><stop offset=".6" stop-color="#32C5F2" data-v-71c375e9></stop><stop offset=".705" stop-color="#46ADF7" data-v-71c375e9></stop><stop offset=".795" stop-color="#549BFF" data-v-71c375e9></stop><stop offset=".9" stop-color="#6783FF" data-v-71c375e9></stop><stop offset="1" stop-color="#7B71FF" data-v-71c375e9></stop></linearGradient><linearGradient id="l" x1="22.733" x2="6.028" y1="-1.083" y2="30.028" gradientUnits="userSpaceOnUse" data-v-71c375e9><stop offset="0" stop-color="#4BEDB8" data-v-71c375e9></stop><stop offset=".105" stop-color="#20EDBB" data-v-71c375e9></stop><stop offset=".205" stop-color="#22E9C8" data-v-71c375e9></stop><stop offset=".3" stop-color="#24E4D4" data-v-71c375e9></stop><stop offset=".395" stop-color="#28E0E1" data-v-71c375e9></stop><stop offset=".505" stop-color="#23D4E8" data-v-71c375e9></stop><stop offset=".6" stop-color="#32C5F2" data-v-71c375e9></stop><stop offset=".705" stop-color="#46ADF7" data-v-71c375e9></stop><stop offset=".795" stop-color="#549BFF" data-v-71c375e9></stop><stop offset=".9" stop-color="#6783FF" data-v-71c375e9></stop><stop offset="1" stop-color="#7B71FF" data-v-71c375e9></stop></linearGradient><linearGradient id="m" x1="22.733" x2="6.028" y1="-1.083" y2="30.028" gradientUnits="userSpaceOnUse" data-v-71c375e9><stop offset="0" stop-color="#4BEDB8" data-v-71c375e9></stop><stop offset=".105" stop-color="#20EDBB" data-v-71c375e9></stop><stop offset=".205" stop-color="#22E9C8" data-v-71c375e9></stop><stop offset=".3" stop-color="#24E4D4" data-v-71c375e9></stop><stop offset=".395" stop-color="#28E0E1" data-v-71c375e9></stop><stop offset=".505" stop-color="#23D4E8" data-v-71c375e9></stop><stop offset=".6" stop-color="#32C5F2" data-v-71c375e9></stop><stop offset=".705" stop-color="#46ADF7" data-v-71c375e9></stop><stop offset=".795" stop-color="#549BFF" data-v-71c375e9></stop><stop offset=".9" stop-color="#6783FF" data-v-71c375e9></stop><stop offset="1" stop-color="#7B71FF" data-v-71c375e9></stop></linearGradient><linearGradient id="n" x1="22.733" x2="6.028" y1="-1.083" y2="30.028" gradientUnits="userSpaceOnUse" data-v-71c375e9><stop offset="0" stop-color="#4BEDB8" data-v-71c375e9></stop><stop offset=".105" stop-color="#20EDBB" data-v-71c375e9></stop><stop offset=".205" stop-color="#22E9C8" data-v-71c375e9></stop><stop offset=".3" stop-color="#24E4D4" data-v-71c375e9></stop><stop offset=".395" stop-color="#28E0E1" data-v-71c375e9></stop><stop offset=".505" stop-color="#23D4E8" data-v-71c375e9></stop><stop offset=".6" stop-color="#32C5F2" data-v-71c375e9></stop><stop offset=".705" stop-color="#46ADF7" data-v-71c375e9></stop><stop offset=".795" stop-color="#549BFF" data-v-71c375e9></stop><stop offset=".9" stop-color="#6783FF" data-v-71c375e9></stop><stop offset="1" stop-color="#7B71FF" data-v-71c375e9></stop></linearGradient><linearGradient id="o" x1="22.733" x2="6.028" y1="-1.083" y2="30.028" gradientUnits="userSpaceOnUse" data-v-71c375e9><stop offset="0" stop-color="#4BEDB8" data-v-71c375e9></stop><stop offset=".105" stop-color="#20EDBB" data-v-71c375e9></stop><stop offset=".205" stop-color="#22E9C8" data-v-71c375e9></stop><stop offset=".3" stop-color="#24E4D4" data-v-71c375e9></stop><stop offset=".395" stop-color="#28E0E1" data-v-71c375e9></stop><stop offset=".505" stop-color="#23D4E8" data-v-71c375e9></stop><stop offset=".6" stop-color="#32C5F2" data-v-71c375e9></stop><stop offset=".705" stop-color="#46ADF7" data-v-71c375e9></stop><stop offset=".795" stop-color="#549BFF" data-v-71c375e9></stop><stop offset=".9" stop-color="#6783FF" data-v-71c375e9></stop><stop offset="1" stop-color="#7B71FF" data-v-71c375e9></stop></linearGradient><linearGradient id="p" x1="22.733" x2="6.028" y1="-1.083" y2="30.028" gradientUnits="userSpaceOnUse" data-v-71c375e9><stop offset="0" stop-color="#4BEDB8" data-v-71c375e9></stop><stop offset=".105" stop-color="#20EDBB" data-v-71c375e9></stop><stop offset=".205" stop-color="#22E9C8" data-v-71c375e9></stop><stop offset=".3" stop-color="#24E4D4" data-v-71c375e9></stop><stop offset=".395" stop-color="#28E0E1" data-v-71c375e9></stop><stop offset=".505" stop-color="#23D4E8" data-v-71c375e9></stop><stop offset=".6" stop-color="#32C5F2" data-v-71c375e9></stop><stop offset=".705" stop-color="#46ADF7" data-v-71c375e9></stop><stop offset=".795" stop-color="#549BFF" data-v-71c375e9></stop><stop offset=".9" stop-color="#6783FF" data-v-71c375e9></stop><stop offset="1" stop-color="#7B71FF" data-v-71c375e9></stop></linearGradient><linearGradient id="q" x1="22.733" x2="6.028" y1="-1.083" y2="30.028" gradientUnits="userSpaceOnUse" data-v-71c375e9><stop offset="0" stop-color="#4BEDB8" data-v-71c375e9></stop><stop offset=".105" stop-color="#20EDBB" data-v-71c375e9></stop><stop offset=".205" stop-color="#22E9C8" data-v-71c375e9></stop><stop offset=".3" stop-color="#24E4D4" data-v-71c375e9></stop><stop offset=".395" stop-color="#28E0E1" data-v-71c375e9></stop><stop offset=".505" stop-color="#23D4E8" data-v-71c375e9></stop><stop offset=".6" stop-color="#32C5F2" data-v-71c375e9></stop><stop offset=".705" stop-color="#46ADF7" data-v-71c375e9></stop><stop offset=".795" stop-color="#549BFF" data-v-71c375e9></stop><stop offset=".9" stop-color="#6783FF" data-v-71c375e9></stop><stop offset="1" stop-color="#7B71FF" data-v-71c375e9></stop></linearGradient><linearGradient id="r" x1="22.733" x2="6.028" y1="-1.083" y2="30.028" gradientUnits="userSpaceOnUse" data-v-71c375e9><stop offset="0" stop-color="#4BEDB8" data-v-71c375e9></stop><stop offset=".105" stop-color="#20EDBB" data-v-71c375e9></stop><stop offset=".205" stop-color="#22E9C8" data-v-71c375e9></stop><stop offset=".3" stop-color="#24E4D4" data-v-71c375e9></stop><stop offset=".395" stop-color="#28E0E1" data-v-71c375e9></stop><stop offset=".505" stop-color="#23D4E8" data-v-71c375e9></stop><stop offset=".6" stop-color="#32C5F2" data-v-71c375e9></stop><stop offset=".705" stop-color="#46ADF7" data-v-71c375e9></stop><stop offset=".795" stop-color="#549BFF" data-v-71c375e9></stop><stop offset=".9" stop-color="#6783FF" data-v-71c375e9></stop><stop offset="1" stop-color="#7B71FF" data-v-71c375e9></stop></linearGradient><linearGradient id="s" x1="22.733" x2="6.028" y1="-1.083" y2="30.028" gradientUnits="userSpaceOnUse" data-v-71c375e9><stop offset="0" stop-color="#4BEDB8" data-v-71c375e9></stop><stop offset=".105" stop-color="#20EDBB" data-v-71c375e9></stop><stop offset=".205" stop-color="#22E9C8" data-v-71c375e9></stop><stop offset=".3" stop-color="#24E4D4" data-v-71c375e9></stop><stop offset=".395" stop-color="#28E0E1" data-v-71c375e9></stop><stop offset=".505" stop-color="#23D4E8" data-v-71c375e9></stop><stop offset=".6" stop-color="#32C5F2" data-v-71c375e9></stop><stop offset=".705" stop-color="#46ADF7" data-v-71c375e9></stop><stop offset=".795" stop-color="#549BFF" data-v-71c375e9></stop><stop offset=".9" stop-color="#6783FF" data-v-71c375e9></stop><stop offset="1" stop-color="#7B71FF" data-v-71c375e9></stop></linearGradient><linearGradient id="t" x1="22.733" x2="6.028" y1="-1.083" y2="30.028" gradientUnits="userSpaceOnUse" data-v-71c375e9><stop offset="0" stop-color="#4BEDB8" data-v-71c375e9></stop><stop offset=".105" stop-color="#20EDBB" data-v-71c375e9></stop><stop offset=".205" stop-color="#22E9C8" data-v-71c375e9></stop><stop offset=".3" stop-color="#24E4D4" data-v-71c375e9></stop><stop offset=".395" stop-color="#28E0E1" data-v-71c375e9></stop><stop offset=".505" stop-color="#23D4E8" data-v-71c375e9></stop><stop offset=".6" stop-color="#32C5F2" data-v-71c375e9></stop><stop offset=".705" stop-color="#46ADF7" data-v-71c375e9></stop><stop offset=".795" stop-color="#549BFF" data-v-71c375e9></stop><stop offset=".9" stop-color="#6783FF" data-v-71c375e9></stop><stop offset="1" stop-color="#7B71FF" data-v-71c375e9></stop></linearGradient><linearGradient id="u" x1="22.733" x2="6.028" y1="-1.083" y2="30.028" gradientUnits="userSpaceOnUse" data-v-71c375e9><stop offset="0" stop-color="#4BEDB8" data-v-71c375e9></stop><stop offset=".105" stop-color="#20EDBB" data-v-71c375e9></stop><stop offset=".205" stop-color="#22E9C8" data-v-71c375e9></stop><stop offset=".3" stop-color="#24E4D4" data-v-71c375e9></stop><stop offset=".395" stop-color="#28E0E1" data-v-71c375e9></stop><stop offset=".505" stop-color="#23D4E8" data-v-71c375e9></stop><stop offset=".6" stop-color="#32C5F2" data-v-71c375e9></stop><stop offset=".705" stop-color="#46ADF7" data-v-71c375e9></stop><stop offset=".795" stop-color="#549BFF" data-v-71c375e9></stop><stop offset=".9" stop-color="#6783FF" data-v-71c375e9></stop><stop offset="1" stop-color="#7B71FF" data-v-71c375e9></stop></linearGradient><linearGradient id="v" x1="22.733" x2="6.028" y1="-1.083" y2="30.028" gradientUnits="userSpaceOnUse" data-v-71c375e9><stop offset="0" stop-color="#4BEDB8" data-v-71c375e9></stop><stop offset=".105" stop-color="#20EDBB" data-v-71c375e9></stop><stop offset=".205" stop-color="#22E9C8" data-v-71c375e9></stop><stop offset=".3" stop-color="#24E4D4" data-v-71c375e9></stop><stop offset=".395" stop-color="#28E0E1" data-v-71c375e9></stop><stop offset=".505" stop-color="#23D4E8" data-v-71c375e9></stop><stop offset=".6" stop-color="#32C5F2" data-v-71c375e9></stop><stop offset=".705" stop-color="#46ADF7" data-v-71c375e9></stop><stop offset=".795" stop-color="#549BFF" data-v-71c375e9></stop><stop offset=".9" stop-color="#6783FF" data-v-71c375e9></stop><stop offset="1" stop-color="#7B71FF" data-v-71c375e9></stop></linearGradient><linearGradient id="w" x1="22.733" x2="6.028" y1="-1.083" y2="30.028" gradientUnits="userSpaceOnUse" data-v-71c375e9><stop offset="0" stop-color="#4BEDB8" data-v-71c375e9></stop><stop offset=".105" stop-color="#20EDBB" data-v-71c375e9></stop><stop offset=".205" stop-color="#22E9C8" data-v-71c375e9></stop><stop offset=".3" stop-color="#24E4D4" data-v-71c375e9></stop><stop offset=".395" stop-color="#28E0E1" data-v-71c375e9></stop><stop offset=".505" stop-color="#23D4E8" data-v-71c375e9></stop><stop offset=".6" stop-color="#32C5F2" data-v-71c375e9></stop><stop offset=".705" stop-color="#46ADF7" data-v-71c375e9></stop><stop offset=".795" stop-color="#549BFF" data-v-71c375e9></stop><stop offset=".9" stop-color="#6783FF" data-v-71c375e9></stop><stop offset="1" stop-color="#7B71FF" data-v-71c375e9></stop></linearGradient><linearGradient id="x" x1="9.533" x2="16.283" y1="16.972" y2="-1.41" gradientUnits="userSpaceOnUse" data-v-71c375e9><stop offset="0" stop-color="#4BEDB8" data-v-71c375e9></stop><stop offset=".105" stop-color="#20EDBB" data-v-71c375e9></stop><stop offset=".205" stop-color="#22E9C8" data-v-71c375e9></stop><stop offset=".3" stop-color="#24E4D4" data-v-71c375e9></stop><stop offset=".395" stop-color="#28E0E1" data-v-71c375e9></stop><stop offset=".505" stop-color="#23D4E8" data-v-71c375e9></stop><stop offset=".6" stop-color="#32C5F2" data-v-71c375e9></stop><stop offset=".705" stop-color="#46ADF7" data-v-71c375e9></stop><stop offset=".795" stop-color="#549BFF" data-v-71c375e9></stop><stop offset=".9" stop-color="#6783FF" data-v-71c375e9></stop><stop offset="1" stop-color="#7B71FF" data-v-71c375e9></stop></linearGradient></defs></svg>
