<svg width="128" height="37" viewBox="0 0 128 37" fill="none" xmlns="http://www.w3.org/2000/svg">
<g clip-path="url(#clip0_736_6)">
<path d="M48.1222 4.65708C48.3891 4.65741 48.6559 4.65501 48.9228 4.65248C49.094 4.65225 49.2652 4.65218 49.4364 4.65228C49.5154 4.65135 49.5944 4.65042 49.6758 4.64947C50.1353 4.65336 50.4366 4.70398 50.8008 4.99152C51.013 5.41591 50.9328 5.96366 50.937 6.43053C50.9387 6.56759 50.9414 6.70465 50.9453 6.84168C50.9508 7.03985 50.9527 7.23812 50.9545 7.43636C50.9565 7.55499 50.9585 7.67361 50.9605 7.79582C50.8824 8.22434 50.7469 8.36769 50.3974 8.62273C50.0675 8.68604 50.0675 8.68604 49.696 8.68695C49.5962 8.68852 49.5962 8.68852 49.4944 8.69013C49.2826 8.69311 49.071 8.69278 48.8591 8.69208C47.2613 8.62173 46.8525 8.47356 45.8583 9.2279C45.1523 10.1357 45.2274 11.3045 45.1523 12.6574C47.5822 12.6574 50.012 12.6574 52.5156 12.6574C52.5156 11.8253 52.5156 10.9931 52.5156 10.1357C52.7724 8.40232 53.3091 6.95917 54.7591 5.87726C56.2017 4.94548 57.8128 4.68064 59.499 4.66489C59.5838 4.66407 59.6687 4.66326 59.7561 4.66242C59.9337 4.66104 60.1114 4.65995 60.289 4.65915C60.4702 4.65798 60.6514 4.65591 60.8325 4.65295C61.0962 4.64865 61.3598 4.64701 61.6235 4.64598C61.7041 4.64421 61.7847 4.64244 61.8677 4.64062C62.2629 4.64216 62.4576 4.66193 62.8021 4.87443C63.2513 5.35532 63.129 6.02382 63.1318 6.64322C63.1349 6.81524 63.1349 6.81524 63.1381 6.99074C63.1386 7.10152 63.1391 7.2123 63.1397 7.32643C63.1406 7.42751 63.1416 7.52859 63.1425 7.63273C63.0885 8.05965 62.9022 8.3228 62.6022 8.62273C62.299 8.65009 62.299 8.65009 61.9119 8.65386C61.7701 8.6564 61.6282 8.65896 61.4864 8.66154C61.2638 8.66442 61.0412 8.66684 60.8185 8.66876C59.8469 8.67875 58.9495 8.709 58.0758 9.1838C57.483 9.86384 57.3876 10.7425 57.3319 11.6109C57.3241 11.7122 57.3163 11.8135 57.3083 11.9178C57.2895 12.1643 57.2722 12.4108 57.2563 12.6574C57.3459 12.6567 57.3459 12.6567 57.4374 12.656C58.0592 12.6516 58.6809 12.6485 59.3027 12.6463C59.5348 12.6453 59.7668 12.6439 59.9989 12.6422C60.3324 12.6397 60.6659 12.6386 60.9994 12.6377C61.1032 12.6367 61.207 12.6356 61.314 12.6345C61.4109 12.6345 61.5078 12.6345 61.6077 12.6345C61.6928 12.6341 61.7779 12.6336 61.8656 12.6331C62.1255 12.6603 62.2821 12.7179 62.5014 12.8591C62.8191 13.3358 62.7445 13.8455 62.746 14.4066C62.7472 14.6104 62.7522 14.8138 62.7573 15.0175C62.758 15.1465 62.7587 15.2755 62.7594 15.4084C62.7608 15.5264 62.7622 15.6444 62.7636 15.7659C62.6807 16.2056 62.5595 16.3253 62.1988 16.5912C61.8214 16.6611 61.451 16.6499 61.0684 16.6405C60.9594 16.6397 60.8504 16.639 60.7381 16.6383C60.3907 16.6355 60.0434 16.6292 59.696 16.6227C59.4602 16.6202 59.2244 16.6179 58.9886 16.6158C58.4111 16.6103 57.8337 16.6018 57.2563 16.5912C57.2567 16.6662 57.257 16.7412 57.2574 16.8185C57.2663 18.6427 57.273 20.4669 57.2772 22.2912C57.2793 23.1734 57.2821 24.0555 57.2867 24.9377C57.2908 25.7065 57.2934 26.4753 57.2943 27.2441C57.2948 27.6513 57.296 28.0585 57.299 28.4656C57.3017 28.8488 57.3025 29.2319 57.3019 29.6151C57.302 29.7558 57.3028 29.8965 57.3044 30.0371C57.3064 30.2291 57.3057 30.4211 57.3048 30.6131C57.3054 30.7744 57.3054 30.7744 57.3059 30.9388C57.244 31.2858 57.1239 31.4029 56.8528 31.6204C56.3398 31.827 55.7083 31.7439 55.1649 31.7455C54.957 31.7464 54.7492 31.7496 54.5414 31.7528C53.2601 31.7578 53.2601 31.7578 52.7173 31.4186C52.4845 31.0694 52.4906 30.9398 52.4913 30.5282C52.4909 30.3443 52.4909 30.3443 52.4905 30.1566C52.4912 30.0205 52.4919 29.8844 52.4927 29.7484C52.4927 29.6052 52.4927 29.4621 52.4926 29.3189C52.4925 28.9301 52.4937 28.5412 52.4951 28.1524C52.4964 27.7461 52.4965 27.3398 52.4967 26.9335C52.4973 26.1641 52.499 25.3946 52.501 24.6251C52.5037 23.5854 52.5048 22.5458 52.506 21.5061C52.5079 19.8678 52.5119 18.2295 52.5156 16.5912C50.0857 16.5912 47.6558 16.5912 45.1523 16.5912C45.157 17.6339 45.1616 18.6765 45.1665 19.7508C45.1685 20.4104 45.1705 21.0701 45.172 21.7297C45.1744 22.7773 45.1772 23.8248 45.1827 24.8723C45.1867 25.6352 45.1893 26.398 45.1902 27.1609C45.1908 27.5649 45.192 27.9688 45.1949 28.3728C45.1977 28.753 45.1985 29.1333 45.1979 29.5135C45.198 29.653 45.1988 29.7926 45.2004 29.9321C45.2024 30.1227 45.2017 30.3133 45.2008 30.504C45.2012 30.6106 45.2015 30.7173 45.2019 30.8271C45.1398 31.1889 45.0004 31.3582 44.7488 31.6204C44.2361 31.8472 43.5621 31.74 43.0067 31.7399C42.7893 31.7401 42.572 31.742 42.3546 31.7439C42.2156 31.7442 42.0766 31.7444 41.9375 31.7445C41.8118 31.7449 41.686 31.7453 41.5564 31.7457C41.149 31.7162 40.8544 31.6347 40.5376 31.3745C40.2791 31.0514 40.2982 30.7298 40.2985 30.3342C40.2984 30.2132 40.2983 30.0923 40.2981 29.9677C40.2987 29.7684 40.2987 29.7684 40.2992 29.5651C40.2992 29.424 40.2992 29.2828 40.2992 29.1417C40.2991 28.7582 40.2997 28.3748 40.3004 27.9914C40.3011 27.5907 40.3011 27.1901 40.3013 26.7895C40.3016 26.0307 40.3024 25.272 40.3034 24.5133C40.3045 23.6495 40.3051 22.7857 40.3056 21.922C40.3067 20.145 40.3084 18.3681 40.3107 16.5912C40.212 16.5939 40.1132 16.5965 40.0115 16.5992C39.6446 16.6084 39.2777 16.6141 38.9107 16.6189C38.752 16.6214 38.5933 16.6249 38.4346 16.6293C38.2063 16.6354 37.978 16.6382 37.7496 16.6405C37.6435 16.6444 37.6435 16.6444 37.5353 16.6484C37.1595 16.6486 37.0116 16.6194 36.7356 16.3559C36.54 16.0208 36.5265 15.7988 36.525 15.4119C36.5245 15.2834 36.524 15.1549 36.5234 15.0225C36.5243 14.9561 36.5251 14.8897 36.526 14.8212C36.5282 14.6182 36.526 14.4154 36.5234 14.2124C36.524 14.084 36.5245 13.9556 36.525 13.8233C36.5255 13.7061 36.5259 13.5888 36.5264 13.4681C36.5889 13.1011 36.694 12.9858 36.9821 12.7583C37.282 12.6083 37.5533 12.6462 37.8875 12.6476C37.9912 12.6478 37.9912 12.6478 38.097 12.648C38.3179 12.6486 38.5389 12.6498 38.7598 12.6511C38.9096 12.6516 39.0593 12.6521 39.209 12.6525C39.5762 12.6536 39.9435 12.6553 40.3107 12.6574C40.3083 12.5378 40.306 12.4182 40.3036 12.2949C40.2728 10.0658 40.4722 8.03953 42.0569 6.32801C43.6955 4.78709 45.9935 4.65167 48.1222 4.65708Z" fill="#8B54E6"/>
<path d="M23.2045 9.42542C25.3103 11.1825 26.4352 13.5275 26.7415 16.2398C26.7769 16.8333 26.7702 17.4282 26.7692 18.0224C26.7697 18.1981 26.7702 18.3737 26.7708 18.5493C26.7721 19.0223 26.7722 19.4953 26.7719 19.9684C26.7718 20.3645 26.7723 20.7605 26.7728 21.1566C26.7739 22.091 26.774 23.0254 26.7734 23.9598C26.7727 24.922 26.774 25.8842 26.7761 26.8463C26.7779 27.6748 26.7785 28.5033 26.7782 29.3318C26.778 29.8256 26.7783 30.3194 26.7797 30.8132C26.7809 31.2771 26.7807 31.7411 26.7794 32.2051C26.7792 32.3748 26.7795 32.5446 26.7803 32.7143C26.7856 33.8676 26.7698 34.8518 25.9291 35.7347C25.3535 36.2456 24.6855 36.4585 23.9172 36.4132C23.1452 36.2516 22.5803 35.9328 22.1016 35.3037C21.7568 34.7289 21.6854 34.225 21.6867 33.5628C21.6867 33.4376 21.6867 33.3125 21.6867 33.1835C21.6873 33.048 21.6878 32.9124 21.6883 32.7769C21.6885 32.6374 21.6887 32.4979 21.6888 32.3584C21.6891 31.9924 21.6901 31.6265 21.6912 31.2605C21.6923 30.8866 21.6927 30.5127 21.6932 30.1388C21.6943 29.406 21.696 28.6732 21.6982 27.9404C21.6236 27.9413 21.5489 27.9422 21.4721 27.9431C20.7644 27.9512 20.0567 27.9574 19.349 27.9613C18.9852 27.9634 18.6215 27.9662 18.2578 27.9708C17.9059 27.9753 17.5541 27.9776 17.2022 27.9787C17.0045 27.9798 16.8068 27.9829 16.6091 27.9861C15.4555 27.9864 14.5492 27.7547 13.7112 26.9376C13.2214 26.3826 13.1688 25.8236 13.1911 25.109C13.2648 24.4733 13.5346 24.0689 13.9882 23.6283C14.9018 22.9073 15.8709 22.8394 16.9996 22.8576C17.136 22.8584 17.2723 22.859 17.4087 22.8594C17.7637 22.8609 18.1187 22.8649 18.4737 22.8693C18.8375 22.8735 19.2014 22.8753 19.5652 22.8773C20.2762 22.8816 20.9872 22.8885 21.6982 22.8971C21.6943 22.0236 21.6883 21.1503 21.6796 20.2769C21.6757 19.8712 21.6724 19.4656 21.6708 19.0599C21.6693 18.6674 21.6658 18.2751 21.661 17.8826C21.6595 17.7339 21.6587 17.5851 21.6586 17.4363C21.6572 16.1853 21.4774 15.1424 20.7265 14.1153C20.5886 13.9199 20.577 13.9199 20.4762 13.7182C20.2674 13.5291 20.1852 13.466 19.9834 13.3147C19.8481 13.2192 19.7137 13.1225 19.58 13.0247C18.4044 12.2474 17.0621 12.1051 15.6962 12.3762C14.8025 12.6478 14.0514 13.1234 13.4271 13.819C13.3605 13.8918 13.2939 13.9647 13.2254 14.0397C12.4565 15.1209 12.2887 16.1001 12.2864 17.399C12.2845 17.5995 12.2827 17.8 12.2807 18.0004C12.2761 18.4918 12.2737 18.9833 12.2715 19.4747C12.2702 19.7513 12.2681 20.0278 12.2653 20.3043C12.2626 20.5637 12.2612 20.8232 12.2612 21.0827C12.2497 22.0987 12.1191 22.8799 11.4042 23.6307C10.8287 24.1415 10.1607 24.3545 9.39242 24.3092C8.62034 24.1475 8.05547 23.8287 7.57682 23.1997C7.24699 22.6499 7.16158 22.1585 7.1571 21.5246C7.15613 21.4134 7.15516 21.3022 7.15416 21.1876C7.15373 21.0679 7.1533 20.9482 7.15286 20.8249C7.15229 20.7001 7.15171 20.5753 7.15112 20.4467C7.15017 20.1819 7.14951 19.9171 7.14912 19.6523C7.14846 19.253 7.14502 18.8537 7.14183 18.4544C7.12767 15.1217 7.77092 12.401 10.1237 9.91675C13.7559 6.44384 19.3246 6.30109 23.2045 9.42542Z" fill="#8B54E6"/>
<path d="M77.6026 14.0013C79.5182 15.5965 80.4396 18.0816 80.6715 20.5036C80.7075 20.9591 80.7199 21.4133 80.7248 21.8701C80.7277 21.9624 80.7306 22.0546 80.7337 22.1497C80.7378 22.5865 80.7358 22.8288 80.5022 23.2078C80.1847 23.4981 80.0133 23.5155 79.5928 23.515C79.4881 23.5152 79.3835 23.5153 79.2756 23.5155C79.1027 23.5149 79.1027 23.5149 78.9263 23.5144C78.7447 23.5144 78.7447 23.5144 78.5595 23.5144C78.2271 23.5144 77.8947 23.5138 77.5624 23.5131C77.2152 23.5125 76.868 23.5125 76.5208 23.5123C75.8632 23.512 75.2055 23.5112 74.5478 23.5102C73.7992 23.5091 73.0506 23.5085 72.302 23.508C70.7618 23.5069 69.2216 23.5052 67.6815 23.5029C67.7263 23.7752 67.772 24.0473 67.8182 24.3193C67.8307 24.3956 67.8431 24.4719 67.856 24.5505C68.0559 25.7169 68.5376 26.9203 69.4844 27.6763C70.3911 28.2938 71.4035 28.4421 72.4852 28.2815C73.6959 28.0184 74.5632 27.3143 75.3245 26.3658C75.4482 26.2263 75.4482 26.2263 75.6499 26.1255C76.2201 26.0967 76.7904 26.0938 77.3612 26.0901C77.5521 26.0885 77.743 26.0857 77.9338 26.0819C78.2092 26.0763 78.4844 26.0741 78.7599 26.0727C78.8449 26.0704 78.9299 26.0681 79.0175 26.0657C79.4613 26.0673 79.6311 26.0833 79.9918 26.3674C80.1889 26.6298 80.1889 26.6298 80.2339 26.8457C80.0665 27.9476 79.4406 28.676 78.6759 29.4541C78.6212 29.5101 78.5665 29.5661 78.5101 29.6239C76.433 31.5642 73.4274 31.9504 70.725 31.8882C68.4217 31.7925 66.3243 30.85 64.7563 29.1515C62.6911 26.6558 62.3927 23.3299 62.685 20.211C62.9452 17.9328 63.739 15.8008 65.4624 14.2232C68.8643 11.5196 74.1159 11.3401 77.6026 14.0013ZM69.3962 16.2405C69.262 16.3279 69.262 16.3279 69.1251 16.417C68.201 17.3161 67.8118 18.5153 67.6815 19.7708C67.6815 19.9706 67.6815 20.1703 67.6815 20.376C70.311 20.376 72.9406 20.376 75.6499 20.376C75.5406 18.8452 75.3506 17.5551 74.2378 16.4422C72.7436 15.3968 70.9552 15.1905 69.3962 16.2405Z" fill="#8B54E6"/>
<path d="M111.559 14.1213C112.342 14.7791 112.902 15.5291 113.179 16.5232C113.171 16.9142 113.088 17.1265 112.87 17.4499C112.376 17.7851 111.748 17.6853 111.176 17.6835C110.967 17.6831 110.759 17.6855 110.55 17.6881C110.35 17.6882 110.35 17.6882 110.147 17.6883C110.026 17.6886 109.905 17.6889 109.781 17.6892C109.169 17.6217 108.794 17.3371 108.369 16.914C107.41 16.0367 106.4 15.6755 105.103 15.6343C104.317 15.6802 103.513 15.8293 102.928 16.3908C102.567 16.8336 102.448 17.2858 102.481 17.8534C102.564 18.2684 102.699 18.5679 102.985 18.8809C104.329 19.6927 105.869 19.9769 107.382 20.3285C109.624 20.8501 109.624 20.8501 110.55 21.2828C110.693 21.3491 110.693 21.3491 110.839 21.4168C112.131 22.0674 113.21 23.1225 113.677 24.5106C114.047 25.9436 113.941 27.3997 113.222 28.7135C112.186 30.3364 110.395 31.2135 108.566 31.6259C107.52 31.8318 106.495 31.9101 105.431 31.9054C105.299 31.9049 105.167 31.9044 105.031 31.9039C102.528 31.8737 100.017 31.2382 98.1974 29.4274C97.5469 28.7228 97.0859 28.0204 97.1087 27.0413C97.1434 26.7599 97.226 26.6149 97.4373 26.427C97.9876 26.2436 98.5903 26.2792 99.167 26.2687C99.3238 26.265 99.4805 26.2595 99.6371 26.2521C100.489 26.2126 101.114 26.1948 101.803 26.76C101.964 26.9162 102.122 27.0741 102.279 27.234C103.572 28.273 104.889 28.5133 106.515 28.3435C107.232 28.1875 107.921 27.8877 108.413 27.3285C108.717 26.8326 108.689 26.2832 108.634 25.721C108.347 25.0763 107.81 24.7707 107.178 24.5102C106.511 24.266 105.844 24.0762 105.154 23.9117C104.941 23.8595 104.728 23.8072 104.515 23.7549C104.41 23.7293 104.305 23.7037 104.198 23.6773C99.497 22.5271 99.497 22.5271 98.2017 20.5492C97.5138 19.3606 97.3775 17.7787 97.7281 16.4456C98.3321 14.7595 99.5604 13.6798 101.129 12.9058C104.353 11.4127 108.766 11.9467 111.559 14.1213Z" fill="#8B54E6"/>
<path d="M15.8197 -0.0198975C15.9464 -0.0207599 15.9464 -0.0207599 16.0757 -0.0216398C16.2543 -0.0225887 16.4328 -0.0232503 16.6113 -0.0236406C16.8785 -0.0246102 17.1455 -0.0277395 17.4127 -0.0309298C18.8969 -0.040252 20.2896 0.153866 21.718 0.567967C21.8058 0.593419 21.8936 0.618871 21.9841 0.645095C26.2498 1.93788 29.8165 4.98078 31.9589 8.8619C33.2015 11.1956 33.9226 13.7225 33.9355 16.3725C33.9389 16.4946 33.9422 16.6166 33.9456 16.7423C33.9508 17.6067 33.8102 18.1124 33.2177 18.7393C32.7402 19.2062 32.1882 19.4524 31.5195 19.4773C30.7178 19.4282 30.1276 19.174 29.573 18.5916C28.9813 17.853 28.9292 17.1312 28.8886 16.211C28.7438 13.2124 27.4566 10.6383 25.4186 8.4734C25.3642 8.41255 25.3099 8.3517 25.2539 8.28901C23.8641 6.79444 21.9049 5.88653 19.9718 5.34653C19.8493 5.31208 19.7268 5.27762 19.6006 5.24212C16.392 4.50033 13.1776 5.22631 10.3894 6.85954C10.2201 6.97113 10.0518 7.08435 9.8851 7.19996C9.27633 7.61601 8.74233 7.71654 8.01749 7.61879C7.22372 7.4503 6.70981 7.01736 6.2539 6.3552C5.90683 5.70907 5.86327 5.10265 6.05847 4.3946C6.46217 3.31012 7.42015 2.77589 8.3721 2.21966C8.43089 2.1848 8.48967 2.14994 8.55024 2.11402C10.716 0.844002 13.2974 -0.00625079 15.8197 -0.0198975Z" fill="white"/>
<path d="M118.846 5.61466C118.928 5.61399 119.009 5.61331 119.093 5.61262C119.265 5.6116 119.437 5.61113 119.61 5.61116C119.873 5.61072 120.136 5.60706 120.399 5.60323C120.566 5.60264 120.734 5.60224 120.901 5.60205C121.019 5.59987 121.019 5.59987 121.139 5.59766C121.501 5.6007 121.704 5.61582 121.995 5.84057C122.258 6.19869 122.263 6.40849 122.262 6.85072C122.262 7.0385 122.262 7.0385 122.262 7.23008C122.262 7.3672 122.261 7.50433 122.261 7.64145C122.26 7.78137 122.26 7.92129 122.26 8.06122C122.26 8.42968 122.259 8.79813 122.258 9.16659C122.257 9.5425 122.256 9.91841 122.256 10.2943C122.255 11.032 122.253 11.7698 122.251 12.5075C122.309 12.5068 122.367 12.5061 122.427 12.5054C123.034 12.4988 123.641 12.4942 124.249 12.4909C124.475 12.4893 124.701 12.4873 124.928 12.4847C125.254 12.481 125.579 12.4793 125.905 12.4779C126.006 12.4764 126.107 12.4748 126.212 12.4732C127.099 12.473 127.099 12.473 127.496 12.8101C127.712 13.2432 127.624 13.8169 127.626 14.2977C127.628 14.5107 127.633 14.7236 127.637 14.9366C127.638 15.0722 127.639 15.2079 127.64 15.3436C127.642 15.5286 127.642 15.5286 127.644 15.7174C127.597 16.0378 127.597 16.0378 127.462 16.2805C127.022 16.5434 126.575 16.4906 126.073 16.4807C125.964 16.4801 125.854 16.4796 125.742 16.479C125.394 16.4767 125.045 16.4716 124.697 16.4665C124.46 16.4645 124.224 16.4626 123.988 16.461C123.409 16.4565 122.83 16.4498 122.251 16.4413C122.257 17.5812 122.265 18.7211 122.275 19.861C122.279 20.3904 122.283 20.9197 122.286 21.4491C122.288 21.9606 122.292 22.472 122.297 22.9834C122.299 23.178 122.3 23.3725 122.301 23.5671C122.262 25.3729 122.262 25.3729 123.058 26.9314C123.894 27.439 124.82 27.3893 125.762 27.3853C126.059 27.3841 126.356 27.3855 126.653 27.3885C126.849 27.3878 126.849 27.3878 127.048 27.3871C127.452 27.4438 127.617 27.5494 127.899 27.8392C128.076 28.3702 128.023 28.9352 128.025 29.4909C128.027 29.6152 128.03 29.7395 128.032 29.8676C128.032 30.0474 128.032 30.0474 128.033 30.2309C128.034 30.3404 128.035 30.4499 128.036 30.5628C127.994 30.9166 127.925 31.0954 127.698 31.3696C127.278 31.5645 126.904 31.5972 126.446 31.5981C126.26 31.5987 126.26 31.5987 126.071 31.5994C125.94 31.5984 125.809 31.5975 125.674 31.5965C125.607 31.5962 125.54 31.5959 125.471 31.5956C122.101 31.5772 122.101 31.5772 120.738 30.9661C120.659 30.931 120.58 30.8959 120.499 30.8597C119.032 30.1239 118.232 28.8934 117.716 27.381C117.358 26.0229 117.381 24.6105 117.389 23.2183C117.39 23.0216 117.39 22.8249 117.39 22.6282C117.391 22.1161 117.393 21.6041 117.395 21.0921C117.397 20.5673 117.398 20.0425 117.399 19.5177C117.401 18.4922 117.405 17.4668 117.409 16.4413C117.313 16.4434 117.218 16.4455 117.119 16.4477C116.764 16.4546 116.408 16.4596 116.052 16.4635C115.898 16.4655 115.745 16.4682 115.591 16.4717C115.37 16.4766 115.148 16.4789 114.927 16.4807C114.794 16.4828 114.661 16.4849 114.524 16.4871C114.181 16.4413 114.181 16.4413 113.939 16.256C113.556 15.7374 113.655 15.1038 113.652 14.487C113.65 14.3723 113.648 14.2576 113.646 14.1395C113.645 14.0287 113.645 13.9179 113.644 13.8038C113.643 13.7027 113.642 13.6016 113.641 13.4975C113.684 13.1608 113.774 12.9779 113.98 12.7092C114.337 12.4679 114.661 12.4842 115.084 12.4878C115.151 12.4881 115.218 12.4884 115.286 12.4887C115.498 12.4898 115.71 12.4923 115.921 12.4949C116.065 12.4959 116.209 12.4968 116.353 12.4976C116.705 12.4999 117.057 12.5033 117.409 12.5075C117.408 12.4315 117.408 12.3556 117.407 12.2773C117.401 11.5605 117.396 10.8437 117.393 10.1269C117.392 9.75841 117.39 9.38994 117.386 9.02145C117.383 8.66567 117.381 8.3099 117.38 7.9541C117.38 7.75268 117.377 7.55126 117.375 7.34985C117.375 7.22671 117.375 7.10356 117.375 6.97668C117.374 6.86849 117.373 6.76031 117.373 6.64885C117.415 6.30882 117.508 6.12382 117.712 5.85028C118.094 5.59573 118.403 5.61592 118.846 5.61466Z" fill="#8B54E6"/>
<path d="M83.517 5.59565C83.5924 5.59438 83.6678 5.59311 83.7455 5.5918C83.8255 5.59261 83.9054 5.59343 83.9878 5.59427C84.0712 5.59389 84.1546 5.5935 84.2406 5.5931C84.4163 5.59283 84.5921 5.59357 84.7678 5.59526C85.0366 5.59742 85.3051 5.59527 85.5739 5.5927C85.745 5.59296 85.916 5.59348 86.0871 5.59427C86.1673 5.59346 86.2475 5.59264 86.3301 5.5918C86.6945 5.59797 86.9037 5.61424 87.1964 5.84033C87.4135 6.13721 87.4642 6.29899 87.4648 6.66084C87.4652 6.74666 87.4656 6.83248 87.466 6.92091C87.4659 7.01574 87.4658 7.11057 87.4657 7.20827C87.466 7.30859 87.4663 7.40891 87.4666 7.51227C87.4675 7.85059 87.4677 8.1889 87.4678 8.52722C87.4683 8.7689 87.4688 9.01059 87.4693 9.25227C87.4707 9.91041 87.4713 10.5685 87.4718 11.2267C87.472 11.6375 87.4725 12.0483 87.4729 12.4591C87.4742 13.5962 87.4752 14.7333 87.4755 15.8703C87.4756 15.9795 87.4756 15.9795 87.4756 16.0909C87.4756 16.2004 87.4756 16.2004 87.4757 16.3121C87.4757 16.46 87.4758 16.6079 87.4758 16.7557C87.4758 16.8291 87.4759 16.9025 87.4759 16.978C87.4763 18.1668 87.478 19.3555 87.4804 20.5442C87.4828 21.7641 87.484 22.9841 87.4841 24.204C87.4842 24.8892 87.4848 25.5743 87.4867 26.2595C87.4884 26.9038 87.4885 27.5482 87.4876 28.1925C87.4876 28.4293 87.488 28.6661 87.489 28.9028C87.4903 29.2255 87.4897 29.5482 87.4886 29.8709C87.4895 29.9651 87.4903 30.0592 87.4911 30.1562C87.4874 30.64 87.4737 30.9817 87.149 31.3689C86.7067 31.5782 86.303 31.5965 85.8184 31.5974C85.751 31.5976 85.6837 31.5978 85.6143 31.598C85.4728 31.5981 85.3314 31.5978 85.1899 31.5969C84.9743 31.5958 84.7588 31.5969 84.5432 31.5982C84.4051 31.5981 84.267 31.5978 84.1289 31.5974C84.0044 31.5972 83.8799 31.597 83.7516 31.5967C83.3502 31.5654 83.0644 31.4918 82.7495 31.2369C82.5742 31.0226 82.5719 30.9139 82.5713 30.6395C82.5704 30.552 82.5695 30.4645 82.5686 30.3744C82.5691 30.2782 82.5696 30.182 82.5702 30.083C82.5693 29.9298 82.5693 29.9298 82.5683 29.7735C82.5666 29.4297 82.5671 29.0859 82.5676 28.7421C82.5669 28.4962 82.566 28.2504 82.565 28.0045C82.563 27.4051 82.5624 26.8057 82.5626 26.2063C82.5628 25.7192 82.5624 25.2321 82.5616 24.745C82.5614 24.6048 82.5612 24.4646 82.561 24.3244C82.5609 24.2546 82.5608 24.1848 82.5607 24.1129C82.5588 22.7927 82.5589 21.4725 82.5596 20.1522C82.5601 18.9439 82.558 17.7355 82.5547 16.5272C82.5513 15.2871 82.5497 14.047 82.5502 12.8068C82.5504 12.1103 82.5499 11.4139 82.5474 10.7174C82.5451 10.0626 82.5453 9.40785 82.5474 8.75305C82.5477 8.51233 82.5472 8.27161 82.5458 8.03089C82.544 7.70303 82.5452 7.37533 82.5473 7.04747C82.546 6.95152 82.5448 6.85557 82.5435 6.75671C82.5522 6.11324 82.5522 6.11324 82.8533 5.79053C83.1033 5.65389 83.2369 5.59702 83.517 5.59565Z" fill="#8B54E6"/>
<path d="M5.2449 8.87637C5.85924 9.42163 6.21654 10.0159 6.26972 10.8421C6.24584 11.4868 6.03776 12.0313 5.7872 12.6168C5.20754 13.9906 5.0285 15.3884 5.02726 16.8678C5.02678 17.0026 5.02627 17.1374 5.0257 17.2722C5.02457 17.5613 5.02372 17.8505 5.02307 18.1397C5.02199 18.5976 5.01994 19.0555 5.01771 19.5134C5.01148 20.8151 5.00602 22.1169 5.00268 23.4186C5.00083 24.1384 4.9979 24.8582 4.9938 25.5779C4.99168 25.9582 4.99012 26.3385 4.98989 26.7188C4.98967 27.0766 4.98806 27.4344 4.98541 27.7922C4.98435 27.9849 4.98476 28.1776 4.98523 28.3703C4.97557 29.3762 4.83703 30.1502 4.12985 30.8929C3.55428 31.4038 2.88627 31.6167 2.11803 31.5714C1.35719 31.4121 0.763615 31.096 0.302423 30.4619C0.0570928 30.0331 -0.0381482 29.7251 -0.0392814 29.2321C-0.0402804 29.1089 -0.0412795 28.9856 -0.0423088 28.8587C-0.0418813 28.7234 -0.0414216 28.5881 -0.0409328 28.4528C-0.0415085 28.3092 -0.0422111 28.1657 -0.0430306 28.0221C-0.044839 27.6327 -0.0447213 27.2433 -0.0441461 26.8539C-0.0438334 26.5272 -0.0444497 26.2005 -0.0450576 25.8738C-0.0464748 25.1008 -0.0463172 24.3278 -0.0451684 23.5549C-0.0440173 22.7629 -0.0454182 21.971 -0.0481335 21.1791C-0.0503874 20.4957 -0.0510334 19.8122 -0.0504456 19.1288C-0.0501093 18.7222 -0.050325 18.3157 -0.0520848 17.9092C-0.0605393 15.7515 0.00351671 13.6423 0.743716 11.5872C0.774084 11.5003 0.804453 11.4134 0.835742 11.3239C1.2373 10.2012 1.6222 9.14135 2.73938 8.56155C3.58753 8.22498 4.50413 8.34461 5.2449 8.87637Z" fill="#FEFEFE"/>
<path d="M91.8767 12.4779C91.9916 12.4772 91.9916 12.4772 92.1088 12.4766C92.2704 12.476 92.4321 12.4759 92.5938 12.4764C92.8404 12.4767 93.0869 12.4743 93.3335 12.4718C93.4909 12.4715 93.6483 12.4715 93.8058 12.4716C93.8791 12.4706 93.9525 12.4697 94.028 12.4688C94.4756 12.4728 94.7618 12.5345 95.1174 12.8108C95.2678 13.1115 95.232 13.3839 95.2331 13.7195C95.2335 13.7931 95.2339 13.8668 95.2342 13.9426C95.2354 14.1906 95.2358 14.4385 95.2361 14.6864C95.2368 14.8637 95.2374 15.041 95.2381 15.2182C95.2399 15.7007 95.241 16.1831 95.2418 16.6656C95.2423 16.9668 95.2429 17.268 95.2436 17.5692C95.2455 18.5109 95.2469 19.4526 95.2478 20.3944C95.2487 21.4827 95.2514 22.5709 95.2555 23.6592C95.2585 24.4997 95.26 25.3401 95.2603 26.1805C95.2606 26.6828 95.2615 27.1851 95.264 27.6875C95.2664 28.1599 95.2668 28.6323 95.2658 29.1047C95.2657 29.2782 95.2664 29.4518 95.2677 29.6253C95.2695 29.8619 95.2688 30.0985 95.2675 30.3351C95.2677 30.4676 95.268 30.6001 95.2682 30.7366C95.2102 31.1216 95.1197 31.2382 94.8148 31.4712C94.2905 31.6839 93.6436 31.5947 93.0838 31.5963C92.8686 31.5972 92.6535 31.6004 92.4383 31.6036C92.3 31.6042 92.1616 31.6047 92.0232 31.6051C91.8985 31.6061 91.7738 31.607 91.6453 31.608C91.2143 31.565 90.9582 31.4768 90.5784 31.2694C90.3281 30.9168 90.3511 30.5727 90.3504 30.1507C90.35 30.0786 90.3496 30.0066 90.3492 29.9323C90.3482 29.6908 90.3486 29.4493 90.349 29.2078C90.3485 29.0347 90.348 28.8615 90.3474 28.6884C90.3461 28.218 90.346 27.7476 90.3463 27.2773C90.3464 26.8847 90.3459 26.4922 90.3454 26.0996C90.3443 25.1736 90.3442 24.2476 90.3448 23.3216C90.3454 22.366 90.3442 21.4105 90.3421 20.4549C90.3403 19.6346 90.3397 18.8144 90.34 17.9942C90.3402 17.5042 90.3399 17.0143 90.3385 16.5243C90.3372 16.0636 90.3374 15.6028 90.3388 15.1421C90.339 14.973 90.3387 14.8039 90.3379 14.6348C90.3368 14.4039 90.3376 14.1732 90.3389 13.9423C90.3389 13.8132 90.3389 13.684 90.3389 13.5509C90.3795 13.1889 90.4638 13 90.6793 12.7099C91.0338 12.4394 91.449 12.4773 91.8767 12.4779Z" fill="#8B54E6"/>
<path d="M10.8935 26.8366C11.6234 27.321 12.0106 27.8967 12.2047 28.7468C12.2458 29.1634 12.2472 29.5766 12.2449 29.995C12.2452 30.1125 12.2455 30.2299 12.2458 30.351C12.246 30.5981 12.2454 30.8453 12.2442 31.0925C12.2426 31.469 12.2442 31.8454 12.2461 32.222C12.2459 32.4631 12.2455 32.7042 12.2449 32.9454C12.2455 33.057 12.2461 33.1686 12.2468 33.2836C12.2379 34.2675 12.0719 35.0082 11.3879 35.7342C10.8251 36.245 10.2524 36.449 9.4955 36.4335C8.73077 36.3596 8.178 35.9572 7.66572 35.404C7.28197 34.8743 7.14981 34.3989 7.14513 33.7538C7.14416 33.6457 7.14319 33.5376 7.14219 33.4262C7.14176 33.3098 7.14134 33.1934 7.14089 33.0734C7.14032 32.953 7.13974 32.8326 7.13915 32.7085C7.1382 32.4536 7.13754 32.1986 7.13715 31.9437C7.13617 31.5554 7.13305 31.1672 7.12986 30.7789C7.1292 30.5309 7.12867 30.2828 7.12829 30.0348C7.12642 29.8617 7.12642 29.8617 7.12451 29.6851C7.12724 28.6979 7.27785 27.9316 7.97541 27.2066C8.76871 26.4952 9.92841 26.3435 10.8935 26.8366Z" fill="#8B54E6"/>
<path d="M32.7931 22.0525C33.2628 22.3939 33.6699 22.862 33.8913 23.4012C33.9189 23.6894 33.9189 23.6894 33.9222 24.0268C33.9238 24.1534 33.9254 24.2801 33.9271 24.4105C33.9277 24.5485 33.9282 24.6864 33.9287 24.8244C33.9296 24.9666 33.9305 25.1089 33.9314 25.2511C33.9331 25.5492 33.9339 25.8473 33.9342 26.1454C33.9347 26.5258 33.9385 26.906 33.9431 27.2863C33.9461 27.5802 33.9469 27.874 33.947 28.1679C33.9474 28.308 33.9486 28.4481 33.9507 28.5882C33.964 29.545 33.8806 30.1424 33.2176 30.8425C32.7406 31.31 32.1879 31.556 31.5193 31.5809C30.6029 31.5247 30.0142 31.1847 29.407 30.5112C28.9369 29.7531 28.9038 28.9762 28.9086 28.1042C28.9083 27.9867 28.908 27.8692 28.9077 27.7482C28.9075 27.501 28.9081 27.2538 28.9093 27.0066C28.911 26.6301 28.9093 26.2537 28.9074 25.8772C28.9076 25.6361 28.908 25.3949 28.9086 25.1538C28.908 25.0422 28.9074 24.9306 28.9067 24.8156C28.9155 23.8387 29.0794 23.0877 29.7589 22.365C30.6297 21.6013 31.7792 21.4911 32.7931 22.0525Z" fill="white"/>
<path d="M91.7794 4.97575C91.9069 4.97503 91.9069 4.97503 92.037 4.97429C92.2161 4.97395 92.3951 4.97487 92.5742 4.97698C92.8472 4.97968 93.1198 4.977 93.3929 4.97378C93.5674 4.97411 93.742 4.97476 93.9165 4.97575C93.9975 4.97473 94.0786 4.97371 94.162 4.97266C94.5554 4.9808 94.8431 5.01888 95.1688 5.25023C95.4753 5.61232 95.5068 5.87352 95.4969 6.32878C95.4972 6.40299 95.4976 6.47721 95.4979 6.55367C95.4979 6.71 95.4963 6.86633 95.4934 7.02264C95.4894 7.2612 95.4913 7.4992 95.4939 7.73777C95.4932 7.89012 95.4921 8.04247 95.4906 8.19482C95.4916 8.30107 95.4916 8.30107 95.4927 8.40946C95.4824 8.77085 95.4236 8.97128 95.222 9.27338C94.801 9.55857 94.4776 9.55375 93.9795 9.54785C93.8897 9.54834 93.7998 9.54882 93.7072 9.54932C93.5176 9.54966 93.328 9.54873 93.1385 9.54662C92.8488 9.54392 92.5596 9.5466 92.2699 9.54982C92.0854 9.54949 91.9009 9.54885 91.7163 9.54785C91.5869 9.54939 91.5869 9.54939 91.4549 9.55095C91.0347 9.54271 90.8296 9.51438 90.4739 9.27338C90.2306 8.9088 90.2011 8.61984 90.2053 8.19482C90.2046 8.12061 90.2039 8.0464 90.2031 7.96994C90.2023 7.81362 90.2028 7.65728 90.2045 7.50097C90.2065 7.26238 90.2025 7.02438 90.198 6.78584C90.198 6.63349 90.1983 6.48113 90.199 6.32878C90.1975 6.25795 90.1959 6.18712 90.1943 6.11415C90.2037 5.71866 90.2696 5.55448 90.5271 5.25023C90.9223 4.9695 91.308 4.96981 91.7794 4.97575Z" fill="#8B54E6"/>
</g>
<defs>
<clipPath id="clip0_736_6">
<rect width="128" height="36.4129" fill="white"/>
</clipPath>
</defs>
</svg>
