<svg width="70" height="71" viewBox="0 0 70 71" fill="none" xmlns="http://www.w3.org/2000/svg">
<path d="M35 3.85107C52.397 3.85107 66.5 17.9541 66.5 35.3511V60.2212L64.2598 58.6245L62.2275 57.1753L60.1953 58.6245L49.7822 66.0513L39.3691 58.6245L37.3369 57.1753L35.3047 58.6245L24.8906 66.0513L14.4775 58.6245L12.4453 57.1753L10.4131 58.6245L3.5 63.5552V35.3511C3.5 17.9541 17.603 3.85107 35 3.85107Z" fill="black" stroke="black" stroke-width="7"/>
<path d="M25.541 24.7101L39.0328 34.2367L39.0328 42.1516L25.541 51.5907L25.541 44.3298L34.9132 38.1504L25.541 31.8679L25.541 24.7101Z" fill="#CCFF00"/>
<path d="M61.8236 24.7101L48.3318 34.2367L48.3318 42.1516L61.8236 51.5907L61.8236 44.3298L52.4514 38.1504L61.8236 31.8679L61.8236 24.7101Z" fill="#CCFF00"/>
</svg>
