<svg width="248" height="71" viewBox="0 0 248 71" fill="none" xmlns="http://www.w3.org/2000/svg">
<path fill-rule="evenodd" clip-rule="evenodd" d="M19.7612 9.98486C23.0405 9.98486 25.868 10.7198 28.2427 12.1899C30.6172 13.6599 32.3413 15.6109 33.4155 18.042V11.0027H44.017V52.3051C44.017 56.1498 43.1127 59.4013 41.3034 62.0587C39.5507 64.716 37.0626 66.6947 33.8398 67.9952C30.6736 69.3521 26.9418 70.0309 22.6448 70.0309C18.687 70.0309 15.2946 69.4937 12.4676 68.4194C9.64066 67.3452 7.35099 65.8182 5.59827 63.8394C3.90207 61.9171 2.71459 59.6837 2.0361 57.1394L13.2312 56.3758C13.7966 58.072 14.7578 59.4011 16.1147 60.3623C17.5282 61.3233 19.7049 61.8037 22.6448 61.8037C25.9806 61.8037 28.5534 61.0409 30.3627 59.5144C32.172 58.0443 33.0763 55.7256 33.0763 52.5594V46.7922C32.002 48.9972 30.278 50.7788 27.9034 52.1358C25.5288 53.4362 22.8712 54.0865 19.9312 54.0865C16.1995 54.0865 12.8634 53.1815 9.92329 51.3722C7.03975 49.5064 4.77792 46.9336 3.13825 43.6543C1.49867 40.3185 0.678955 36.4735 0.678955 32.12C0.678996 27.7665 1.47088 23.9499 3.05397 20.6706C4.69359 17.335 6.95492 14.7342 9.83829 12.8684C12.7218 10.9461 16.0296 9.98488 19.7612 9.98486ZM22.4755 18.4656C19.1396 18.4656 16.5384 19.71 14.6726 22.1978C12.8634 24.629 11.959 27.9084 11.959 32.0357C11.959 36.163 12.8918 39.4709 14.7576 41.9586C16.6799 44.3897 19.2528 45.605 22.4755 45.605C25.6982 45.605 28.2704 44.4175 30.1927 42.0429C32.115 39.6117 33.1047 36.2761 33.1613 32.0357C33.2178 29.2087 32.7938 26.8053 31.8891 24.8264C31.041 22.7911 29.7972 21.2363 28.1577 20.1621C26.5746 19.0313 24.6804 18.4657 22.4755 18.4656Z" fill="#CCFF00"/>
<path d="M247.321 64.1837H235.363L225.186 48.7479L214.839 64.1837H203.05L218.74 41.9629H231.775L247.321 64.1837Z" fill="#CCFF00"/>
<path fill-rule="evenodd" clip-rule="evenodd" d="M70.5079 9.98486C74.9745 9.98489 78.8757 10.9746 82.2115 12.9535C85.5473 14.8758 88.1201 17.6179 89.9294 21.1799C91.7952 24.6854 92.728 28.8413 92.728 33.6471C92.728 38.3964 91.7952 42.5523 89.9294 46.1143C88.1201 49.6762 85.5472 52.4462 82.2115 54.4251C78.8757 56.3474 74.9745 57.3086 70.5079 57.3087C66.0412 57.3087 62.1117 56.3475 58.7192 54.4251C55.3834 52.4462 52.7822 49.6763 50.9163 46.1143C49.1071 42.5523 48.2028 38.3964 48.2028 33.6471C48.2028 28.8413 49.1071 24.6854 50.9163 21.1799C52.7822 17.6179 55.3834 14.8758 58.7192 12.9535C62.1116 10.9746 66.0412 9.98486 70.5079 9.98486ZM70.5079 18.8049C67.0024 18.8049 64.2881 20.134 62.3657 22.7914C60.4434 25.3922 59.4821 29.011 59.4821 33.6471C59.4821 38.3397 60.4435 41.9864 62.3657 44.5872C64.2881 47.188 67.0024 48.4886 70.5079 48.4886C74.0133 48.4886 76.6985 47.188 78.5643 44.5872C80.4867 41.9864 81.4479 38.3398 81.4479 33.6471C81.4479 29.0108 80.4867 25.3922 78.5643 22.7914C76.6985 20.134 74.0133 18.805 70.5079 18.8049Z" fill="#CCFF00"/>
<path d="M114.505 9.98486C118.576 9.98489 121.997 10.6636 124.767 12.0206C127.538 13.321 129.686 15.1304 131.212 17.4485C132.796 19.71 133.785 22.3106 134.181 25.2507L123.24 25.7592C122.958 24.2328 122.449 22.9042 121.714 21.7735C120.979 20.6427 119.989 19.7946 118.745 19.2292C117.501 18.6073 116.031 18.2963 114.335 18.2963C111.791 18.2964 109.868 18.8051 108.568 19.8228C107.268 20.8404 106.617 22.1974 106.617 23.8935C106.617 25.0808 106.901 26.0705 107.466 26.8621C108.088 27.6536 109.077 28.304 110.434 28.8128C111.791 29.2651 113.6 29.6892 115.862 30.085C120.611 30.82 124.343 31.7812 127.057 32.9685C129.827 34.0994 131.778 35.5693 132.909 37.3786C134.096 39.1313 134.69 41.2516 134.69 43.7393C134.69 46.6229 133.87 49.0825 132.23 51.1179C130.647 53.1533 128.385 54.708 125.445 55.7822C122.562 56.7999 119.169 57.3087 115.268 57.3087C110.802 57.3086 107.042 56.659 103.989 55.3587C100.992 54.0583 98.6741 52.2488 97.0344 49.9308C95.3948 47.6126 94.4613 44.983 94.2351 42.0429L105.345 41.5343C105.741 43.909 106.731 45.7468 108.314 47.0472C109.897 48.3476 112.243 48.9979 115.353 48.9979C117.897 48.9979 119.876 48.6016 121.29 47.8101C122.76 46.9619 123.495 45.6614 123.495 43.9086C123.495 42.891 123.241 42.0427 122.732 41.3643C122.223 40.6859 121.261 40.0924 119.848 39.5836C118.435 39.0747 116.343 38.566 113.572 38.0571C108.936 37.2656 105.289 36.3044 102.632 35.1736C99.9743 33.9863 98.0803 32.5162 96.9494 30.7635C95.8752 29.0108 95.338 26.8336 95.338 24.2328C95.338 19.9923 96.9496 16.5714 100.172 13.9706C103.452 11.3134 108.229 9.98486 114.505 9.98486Z" fill="#CCFF00"/>
<path fill-rule="evenodd" clip-rule="evenodd" d="M187.478 9.98486C191.775 9.98488 195.535 10.9462 198.758 12.8684C202.037 14.7908 204.554 17.5613 206.306 21.1799C208.059 24.7985 208.936 29.1522 208.936 34.2407V36.7H176.792C177.018 40.6578 178.093 43.6546 180.015 45.69C181.994 47.6689 184.595 48.6586 187.818 48.6586C190.249 48.6586 192.256 48.1214 193.839 47.0472C195.479 45.9164 196.609 44.3611 197.231 42.3822L208.341 43.0607C207.098 47.4707 204.638 50.9479 200.964 53.4922C197.345 56.0365 192.934 57.3087 187.733 57.3087C183.21 57.3087 179.28 56.3474 175.944 54.4251C172.608 52.4462 170.035 49.6762 168.226 46.1143C166.417 42.5523 165.513 38.3964 165.513 33.6471C165.513 28.8979 166.417 24.7703 168.226 21.2649C170.035 17.703 172.58 14.9323 175.859 12.9535C179.195 10.9745 183.068 9.98486 187.478 9.98486ZM187.478 18.5506C184.595 18.5506 182.192 19.4836 180.27 21.3492C178.404 23.215 177.244 25.9009 176.792 29.4064H197.741C197.514 25.7315 196.468 23.0177 194.603 21.2649C192.737 19.4557 190.362 18.5506 187.478 18.5506Z" fill="#CCFF00"/>
<path d="M153.208 11.0027H165.166V19.3985H153.208V42.2979C153.208 44.3897 153.66 45.8598 154.565 46.7079C155.469 47.4994 156.883 47.8951 158.805 47.8951H165.166V56.2915H155.498C150.974 56.2915 147.638 55.2449 145.49 53.1529C143.398 51.0609 142.352 47.7815 142.352 43.315V19.3985H135.228V11.0027H142.352V0.401245H153.208V11.0027Z" fill="#CCFF00"/>
<path d="M225.186 19.8642L235.363 4.42841H247.321L231.775 26.6485H218.74L203.05 4.42841H214.839L225.186 19.8642Z" fill="#CCFF00"/>
</svg>
