<svg width="1041" height="354" viewBox="0 0 1041 354" fill="none" xmlns="http://www.w3.org/2000/svg">
<path d="M0 145.872V53.0101H23.0828L49.7475 104.88L76.4122 53.0101H99.495V145.872H79.4633V85.5118L56.1152 131.81H43.5125L20.0317 85.5118V145.872H0Z" fill="white"/>
<path d="M126.682 99.0431C126.682 107.622 129.379 114.653 134.774 120.136C140.258 125.619 146.935 128.361 154.806 128.361C162.677 128.361 169.31 125.619 174.705 120.136C180.188 114.653 182.93 107.622 182.93 99.0431C182.93 90.6413 180.188 83.743 174.705 78.3481C169.31 72.9533 162.677 70.2559 154.806 70.2559C146.935 70.2559 140.258 72.9533 134.774 78.3481C129.379 83.743 126.682 90.6413 126.682 99.0431ZM106.783 99.0431C106.783 89.6685 108.906 81.2666 113.151 73.8377C117.484 66.3203 123.321 60.5275 130.662 56.4592C138.002 52.391 146.05 50.3569 154.806 50.3569C163.561 50.3569 171.61 52.391 178.95 56.4592C186.291 60.5275 192.083 66.3203 196.329 73.8377C200.662 81.2666 202.829 89.6685 202.829 99.0431C202.829 106.118 201.546 112.751 198.982 118.942C196.505 125.044 193.1 130.262 188.767 134.596C184.433 138.841 179.304 142.202 173.378 144.678C167.541 147.066 161.35 148.26 154.806 148.26C148.261 148.26 142.026 147.066 136.101 144.678C130.264 142.202 125.179 138.841 120.845 134.596C116.511 130.262 113.062 125.044 110.497 118.942C108.021 112.751 106.783 106.118 106.783 99.0431Z" fill="white"/>
<path d="M211.33 145.872V53.0101H234.015L270.099 114.034V53.0101H289.998V145.872H267.313L231.229 84.5831V145.872H211.33Z" fill="white"/>
<path d="M318.293 99.0431C318.293 107.622 320.99 114.653 326.385 120.136C331.868 125.619 338.546 128.361 346.417 128.361C354.288 128.361 360.921 125.619 366.316 120.136C371.799 114.653 374.541 107.622 374.541 99.0431C374.541 90.6413 371.799 83.743 366.316 78.3481C360.921 72.9533 354.288 70.2559 346.417 70.2559C338.546 70.2559 331.868 72.9533 326.385 78.3481C320.99 83.743 318.293 90.6413 318.293 99.0431ZM298.394 99.0431C298.394 89.6685 300.516 81.2666 304.761 73.8377C309.095 66.3203 314.932 60.5275 322.273 56.4592C329.613 52.391 337.661 50.3569 346.417 50.3569C355.172 50.3569 363.22 52.391 370.561 56.4592C377.901 60.5275 383.694 66.3203 387.939 73.8377C392.273 81.2666 394.44 89.6685 394.44 99.0431C394.44 106.118 393.157 112.751 390.592 118.942C388.116 125.044 384.711 130.262 380.378 134.596C376.044 138.841 370.915 142.202 364.989 144.678C359.152 147.066 352.961 148.26 346.417 148.26C339.872 148.26 333.637 147.066 327.712 144.678C321.875 142.202 316.789 138.841 312.456 134.596C308.122 130.262 304.673 125.044 302.108 118.942C299.632 112.751 298.394 106.118 298.394 99.0431Z" fill="white"/>
<path d="M442.076 72.6437H422.84V99.4411H442.076C446.498 99.4411 450.168 98.1587 453.087 95.5939C456.005 92.9407 457.465 89.6684 457.465 85.7771C457.465 81.9742 456.005 78.8345 453.087 76.3582C450.168 73.8819 446.498 72.6437 442.076 72.6437ZM442.076 119.075H422.84V145.872H402.941V53.0101H443.403C453.131 53.0101 461.223 56.1497 467.679 62.4289C474.136 68.6197 477.364 76.4024 477.364 85.7771C477.364 95.0633 473.959 102.934 467.149 109.391C460.339 115.847 451.981 119.075 442.076 119.075Z" fill="white"/>
<path d="M502.778 99.0431C502.778 107.622 505.476 114.653 510.871 120.136C516.354 125.619 523.031 128.361 530.902 128.361C538.773 128.361 545.406 125.619 550.801 120.136C556.284 114.653 559.026 107.622 559.026 99.0431C559.026 90.6413 556.284 83.743 550.801 78.3481C545.406 72.9533 538.773 70.2559 530.902 70.2559C523.031 70.2559 516.354 72.9533 510.871 78.3481C505.476 83.743 502.778 90.6413 502.778 99.0431ZM482.879 99.0431C482.879 89.6685 485.002 81.2666 489.247 73.8377C493.581 66.3203 499.418 60.5275 506.758 56.4592C514.099 52.391 522.147 50.3569 530.902 50.3569C539.658 50.3569 547.706 52.391 555.046 56.4592C562.387 60.5275 568.18 66.3203 572.425 73.8377C576.758 81.2666 578.925 89.6685 578.925 99.0431C578.925 106.118 577.643 112.751 575.078 118.942C572.602 125.044 569.197 130.262 564.863 134.596C560.53 138.841 555.4 142.202 549.475 144.678C543.638 147.066 537.447 148.26 530.902 148.26C524.358 148.26 518.123 147.066 512.197 144.678C506.36 142.202 501.275 138.841 496.941 134.596C492.608 130.262 489.159 125.044 486.594 118.942C484.117 112.751 482.879 106.118 482.879 99.0431Z" fill="white"/>
<path d="M607.326 126.238H653.757V145.872H587.427V53.0101H607.326V126.238Z" fill="white"/>
<path d="M671.245 145.872V116.289L637.284 53.0101H660.765L681.327 91.8794L699.236 53.0101H722.585L691.277 116.289V145.872H671.245Z" fill="white"/>
<path d="M539.792 168.01H561.681L540.986 260.872H511.535L495.881 196.665L482.483 260.872H453.032L430.082 168.01H451.838L468.553 236.861L484.605 168.01H507.29L524.801 236.861L539.792 168.01Z" fill="url(#paint0_linear_19084_39053)"/>
<path d="M594.696 260.872H574.797V168.01H594.696V260.872Z" fill="url(#paint1_linear_19084_39053)"/>
<path d="M611.004 260.872V168.01H633.689L669.773 229.034V168.01H689.672V260.872H666.987L630.903 199.583V260.872H611.004Z" fill="url(#paint2_linear_19084_39053)"/>
<path d="M986.157 61.3953C923.548 1.83916 824.613 4.41853 765.18 67.1564C705.747 129.894 708.322 229.033 770.931 288.589L776.685 294.063C839.294 353.619 938.229 351.04 997.662 288.302C1057.1 225.564 1054.52 126.425 991.911 66.8691L986.157 61.3953Z" fill="url(#paint3_linear_19084_39053)"/>
<path fill-rule="evenodd" clip-rule="evenodd" d="M886.541 0.0175097C892.607 -0.166271 898.883 1.14461 902.716 1.70485L902.711 1.70982C911.905 3.04871 921.108 5.36092 930 9.20857C934.086 10.9767 938.181 13.1933 941.44 14.8463L942.178 15.2433C943.928 16.2525 945.87 17.8418 947.254 20.3004C948.881 23.1918 949.143 26.2268 948.79 28.7966V28.8115C946.89 42.4919 948.489 56.2383 951.87 70.5534L952.851 74.5088C955.069 83.1265 957.836 91.6719 960.765 100.469C964.457 98.8339 968.047 96.802 971.567 94.3897L977.836 90.1713L984.032 86.0869C986.547 84.4274 989.857 82.7031 993.987 82.077C998.194 81.4413 1003.53 82.1461 1007.52 86.2408C1011.51 90.3393 1012.09 95.7024 1011.36 99.9231C1010.51 104.817 1008.3 109.793 1004.14 113.72C1002.02 115.726 999.737 117.687 997.315 119.521L994.844 121.313C989.972 124.678 984.841 127.639 979.446 130.151C982.823 136.893 985.602 143.806 987.969 150.782C990.009 156.789 991.656 162.857 993.011 168.94C997.512 169.491 1002.13 170.999 1006.27 174.097L1007.16 174.782L1007.16 174.787C1014.58 180.841 1019.82 189.228 1019.69 200.563H1019.7C1019.75 205.358 1018.79 209.785 1017 213.774C1017.06 213.82 1017.12 213.866 1017.18 213.913C1020.75 216.877 1021.26 220.907 1021.13 223.194L1021.13 223.189C1021.12 223.511 1021.06 225.556 1020.36 227.591L1020.34 227.645C1020.16 228.142 1019.45 230.423 1018.11 232.469L1018.07 232.524C1013.5 239.394 1008.64 247.081 1003.4 254.251C997.297 262.601 989.466 269.864 979.406 274.618C978.814 274.898 978.221 275.171 977.624 275.432C977.406 276.385 977.056 277.321 976.559 278.196C976.559 278.196 976.548 278.217 976.539 278.236L976.361 278.578C976.208 278.865 975.635 279.964 974.617 281.074L974.612 281.069C967.712 288.639 959.871 294.793 951.41 299.978C947.804 302.185 944.116 304.146 940.39 305.918C941.014 307.598 941.177 309.146 941.217 310.166L941.232 310.856L941.257 324.861L941.222 338.916C941.192 343.615 939.149 348.59 934.521 351.536C929.921 354.464 924.601 354.215 920.377 352.33C917.995 351.267 915.918 349.94 914.414 348.955C908.804 345.28 903.164 341.566 897.546 337.809C891.255 341.956 884.944 346.053 878.681 350.117L878.686 350.122C877.533 350.873 875.943 351.819 874.051 352.543C870.043 354.077 864.74 354.414 860.084 351.288C855.394 348.136 853.704 343.042 853.666 338.672L853.631 318.995V310.926C848.241 309.17 842.931 306.978 837.724 304.305C826.59 298.586 816.341 291.475 807.157 282.806L805.334 281.05C798.031 273.878 791.512 265.671 786.777 255.883L786.772 255.878C786.243 254.783 785.711 253.53 785.246 252.409C783.43 252.231 781.812 251.906 780.576 251.615C773.282 249.91 767.363 246.316 763.034 241.04C758.815 235.896 756.612 229.77 755.541 223.695L755.536 223.685C754.904 220.077 754.843 216.363 755.511 212.563C755.861 210.573 756.419 208.654 757.17 206.806C756.702 205.972 756.377 205.219 756.185 204.747L755.412 202.797C753.661 198.209 752.235 193.377 751.356 188.285L750.91 185.377C749.004 170.878 751.746 157.001 759.236 144.161L760.276 142.449C765.611 134.043 772.815 127.88 780.457 123.079C782.939 121.522 785.495 119.974 788.114 118.474C787.727 117.29 787.393 115.849 787.326 114.256L787.322 114.236C787.049 107.354 785.292 100.581 783.166 92.5485L783.161 92.5435C781.165 84.9997 778.487 77.6848 775.123 70.6428L775.109 70.613C774.599 69.5356 774.159 68.4054 773.806 67.2631L773.801 67.2433C773.639 66.7135 773.452 66.0265 773.306 65.2234C772.356 64.2966 771.687 63.3508 771.275 62.6577C770.564 61.4643 769.476 59.7066 768.561 58.0373L768.551 58.0125C767.051 55.2571 766.526 52.0954 767.18 48.9604C767.789 46.0421 769.268 43.8493 770.582 42.3847L770.597 42.3698C772.597 40.1504 775.589 36.5329 778.813 33.6254C786.75 26.4587 795.794 21.511 804.428 17.4468C819.387 10.4057 835.014 5.80571 851.011 3.01006C857.219 1.92396 863.502 1.07853 869.425 0.225946C871.464 -0.0681512 874.12 0.0459047 874.204 0.0472863C878.761 0.0422812 882.523 0.140703 886.541 0.0175097ZM928.484 308.32C927.134 308.301 925.782 308.358 924.433 308.439C922.438 308.559 922.129 308.877 921.972 310.876C921.928 311.43 921.947 311.99 921.947 312.548C921.942 317.966 921.942 323.389 921.927 328.806C921.927 329.302 921.836 329.8 921.769 330.449C921.065 330.052 920.572 329.803 920.109 329.511C913.801 325.51 907.452 321.569 901.215 317.457C898.534 315.687 896.174 315.634 893.579 317.546C891.474 319.1 889.2 320.427 886.982 321.829C882.555 324.623 878.114 327.397 873.159 330.519C873.092 329.263 873.026 328.505 873.026 327.754C873.008 322.816 873.006 317.874 872.996 312.935C872.996 312.377 873.027 311.812 872.966 311.263C872.746 309.328 871.991 308.568 870.084 308.434C868.82 308.344 867.539 308.317 866.27 308.33C864.133 308.358 863.798 308.687 863.774 310.851C863.741 313.562 863.774 316.271 863.774 318.98C863.784 325.512 863.752 332.052 863.809 338.583C863.843 342.563 866.705 344.475 870.43 343.05C871.379 342.687 872.292 342.165 873.149 341.605C880.556 336.799 887.969 332.002 895.322 327.119C896.958 326.03 898.266 326.068 899.878 327.154C906.534 331.638 913.247 336.05 919.961 340.449C921.42 341.404 922.919 342.343 924.502 343.05C927.753 344.5 930.667 342.876 931.04 339.541L931.079 338.851C931.141 329.528 931.113 320.206 931.089 310.881C931.085 308.946 930.443 308.345 928.484 308.32ZM777.238 199.739C773.429 201.534 770.19 204.199 767.818 208.122C766.655 210.049 765.892 212.102 765.501 214.33C765.053 216.877 765.087 219.396 765.53 221.928C767.268 231.786 772.245 239.234 782.894 241.72C784.501 242.097 786.177 242.408 787.817 242.385C790.864 242.337 792.364 243.149 793.557 245.958C794.334 247.787 795.037 249.661 795.899 251.447C800.003 259.929 805.732 267.211 812.431 273.789C821.306 282.501 831.327 289.602 842.349 295.263C857.485 303.032 873.691 306.375 890.602 306.524C898.655 306.595 906.635 305.672 914.508 304.027C918.693 303.158 922.924 302.201 926.894 300.667C933.541 298.095 939.99 295.061 946.12 291.308C953.918 286.53 960.988 280.958 967.144 274.201C967.344 273.982 967.454 273.679 967.743 273.169C965.698 273.355 963.891 273.48 962.092 273.69C961.473 273.763 960.862 273.857 960.26 273.968C959.424 274.931 958.57 275.887 957.685 276.821C924.858 311.473 870.438 313.229 835.455 281.03C830.677 278.113 826.132 274.862 821.999 271.03C817.296 266.669 813.242 261.872 809.811 256.663L803.521 250.677C798.109 245.529 793.504 239.85 789.704 233.799C788.974 233.824 788.246 233.833 787.52 233.799C780.616 233.473 776.008 229.628 774.514 223.223C774.123 221.536 773.99 219.752 773.999 218.012C774.025 213.737 775.707 210.511 778.952 208.524C778.23 205.622 777.66 202.69 777.238 199.739ZM1009.81 221.605C1009.05 221.787 1008.27 222.048 1007.6 222.439C1005.21 223.85 1002.86 225.336 1000.48 226.782C996.577 229.148 992.473 231.07 987.89 231.516C985.358 231.763 982.857 231.734 980.382 231.496C979.946 234.043 979.4 236.575 978.738 239.084C982.717 239.55 986.749 239.528 990.847 238.896C991.29 238.83 991.753 238.886 992.224 238.886C992.182 239.134 992.195 239.308 992.125 239.437C991.972 239.718 991.79 239.977 991.609 240.241C987.682 245.926 982.878 250.771 977.386 254.921C975.267 256.52 973.047 257.921 970.71 259.064C968.784 262.536 966.599 265.902 964.162 269.144C967.887 268.351 971.526 267.111 975.078 265.432C983.314 261.54 989.899 255.517 995.215 248.246C1000.28 241.316 1004.87 234.039 1009.63 226.886C1010.04 226.258 1010.32 225.53 1010.57 224.806L1010.78 224.27C1010.95 223.759 1010.98 223.178 1011 222.628C1011.05 221.797 1010.56 221.425 1009.81 221.605ZM968.397 130.896C967.247 128.792 966.451 128.427 964.138 129.015C962.158 129.522 960.205 130.147 957.952 130.807C958.442 131.694 958.713 132.266 959.046 132.797C971.816 153.232 978.223 175.629 979.936 199.402C981.892 209.179 982.168 219.234 980.758 229.104C980.983 229.19 981.261 229.228 981.6 229.189C982.777 229.051 983.965 228.961 985.127 228.742C988.451 228.115 989.102 227.552 989.208 224.266C989.428 217.185 989.756 210.076 988.702 203.035C987.582 195.561 986.296 188.107 984.998 180.663C983.428 171.635 981.315 162.744 978.366 154.057C975.656 146.068 972.437 138.306 968.397 130.896ZM991.129 178.945C990.212 178.864 989.179 178.91 989.094 180.052C988.836 183.451 989.082 186.932 993.175 188.161C998.246 189.682 1000.65 193.499 1001.7 198.395C1002.91 203.998 1000.71 208.155 996.131 211.258C995.472 211.702 994.671 211.999 994.145 212.558C993.521 213.223 992.819 214.055 992.694 214.896C992.384 216.995 992.335 219.145 992.278 221.273C992.236 222.9 992.723 223.273 994.106 222.489C996.31 221.242 998.497 219.924 1000.51 218.4C1006.46 213.901 1009.63 207.929 1009.55 200.672C1009.72 192.918 1006.33 187.224 1000.75 182.668C997.965 180.396 994.682 179.276 991.129 178.945ZM807.097 120.682C804.58 121.612 802.071 122.563 799.688 123.764C794.945 126.155 790.346 128.869 785.841 131.695C778.617 136.233 772.348 141.825 767.992 149.293L766.778 151.472C760.976 162.437 759.203 174.144 761.35 186.543C762.205 191.497 763.685 196.269 765.575 200.911C766.414 202.975 766.945 203.097 768.7 201.759C770.217 200.602 771.675 199.374 773.197 198.226C775.558 196.444 775.758 196.066 774.623 193.213C771.73 185.936 771.014 178.428 771.993 170.782L772.216 169.248C773.911 158.447 778.625 149.23 787.346 142.469C788.158 141.84 788.978 141.223 789.808 140.623C792.806 135.877 796.307 131.352 800.312 127.124C802.483 124.833 804.75 122.686 807.097 120.682ZM954.475 153.263C956.359 155.055 958.14 156.918 959.829 158.831C957.667 154.282 954.17 150.783 949.884 147.953C949.151 147.469 948.388 147.062 947.601 146.722L954.475 153.263ZM1001.37 98.1763C1002.1 93.9791 999.643 91.5008 995.502 92.1266C993.327 92.4567 991.412 93.388 989.609 94.5782L983.428 98.6527C981.374 100.014 979.323 101.384 977.292 102.777C968.474 108.82 958.941 113.031 948.299 114.633C940.484 115.809 932.658 116.625 924.795 115.377C922.328 114.987 919.864 114.568 917.4 114.146V118.008H916.737C919.104 119.836 921.401 121.802 923.616 123.908L927.36 127.467C932.244 128.043 937.153 128.391 942.099 128.35L944.209 128.31C951.141 128.1 957.956 127.139 964.603 125.055C972.303 122.64 979.488 119.178 986.226 114.851L989.084 112.945C991.231 111.461 993.291 109.821 995.255 108.087L997.191 106.32C999.48 104.159 1000.82 101.312 1001.37 98.1763ZM886.848 10.1763C882.639 10.3054 878.417 10.2063 874.204 10.2111C873.094 10.211 871.963 10.1231 870.871 10.2805L861.803 11.5808C858.781 12.0256 855.762 12.4939 852.755 13.02C837.514 15.6833 822.77 20.04 808.741 26.6428L805.646 28.1366C798.469 31.6863 791.595 35.7641 785.603 41.1738C782.898 43.6116 780.572 46.4636 778.125 49.1788C777.104 50.3167 776.659 51.6812 777.456 53.144C778.257 54.6059 779.138 56.0235 779.992 57.4567C780.588 58.4585 781.311 58.4495 782.111 57.6949C782.573 57.261 783.018 56.8045 783.493 56.3847C786.719 53.5496 789.931 50.6954 793.185 47.8984C794.526 46.7413 794.872 46.8729 795.602 48.4939C795.764 48.856 795.886 49.234 796.028 49.6056C799.855 59.3787 803.682 69.1572 807.518 78.9257C809.202 83.2088 810.93 87.4812 812.609 91.7644C812.972 92.6953 813.439 93.61 812.51 94.6031C810.607 96.6253 808.807 98.7403 806.775 101.035C806.36 99.9505 805.991 99.0951 805.701 98.2209C801.983 87.1285 797.862 76.1807 793.2 65.4517C792.218 63.1914 791.255 60.9234 790.249 58.6775C789.366 56.7031 788.971 56.6515 787.416 58.0373C786.591 58.773 785.678 59.4088 784.801 60.0919C783.203 61.3392 782.888 62.2829 783.493 64.2557C783.703 64.9337 783.971 65.6109 784.276 66.2557C787.916 73.8772 790.811 81.7908 792.967 89.943C795.043 97.7831 797.135 105.64 797.459 113.829C797.498 114.746 797.856 115.708 798.262 116.548C798.667 117.395 799.288 117.358 799.946 116.643C800.852 115.658 801.707 114.604 802.704 113.72C804.784 111.87 806.921 110.089 809.068 108.32C820.811 98.6567 833.62 90.7788 847.792 85.1986C849.587 84.4921 851.398 83.8241 853.205 83.149V57.943C851.14 50.5034 848.837 43.134 846.302 35.8339L844.345 30.3252L843.3 27.4021C842.99 26.4318 843.321 25.6631 844.231 25.2135C844.727 24.97 845.253 24.7666 845.786 24.6279C848.257 23.9761 850.73 23.3947 853.205 22.881V21.7942H859.099C871.7 19.7635 884.37 19.6254 897.125 21.7942H917.4V74.1266C920.862 74.5447 924.313 75.1264 927.746 75.9083C929.859 76.3911 931.986 76.9914 934.195 78.3252L934.2 78.345C930.172 78.345 926.596 78.3165 923.027 78.35C921.151 78.3688 919.275 78.3866 917.4 78.4145V108.38C924.195 109.354 930.99 110.386 937.79 111.357C942.188 111.988 946.507 111.602 950.696 110.077C952.245 109.508 952.598 108.757 952.237 107.124C952.117 106.585 951.933 106.056 951.756 105.531C948.159 94.7589 944.615 83.9692 942 72.8959C938.459 57.9055 936.604 42.7942 938.741 27.4071C938.974 25.7115 938.266 24.6257 936.869 23.9182C934.161 22.5451 931.476 21.1084 928.737 19.7991L925.978 18.5386C919.057 15.5433 911.829 13.5517 904.435 12.2706L901.255 11.7644C896.479 11.0663 891.734 10.0283 886.848 10.1763ZM850.511 89.407C836.067 94.3992 823.284 102.286 811.559 112.003C809.808 113.451 808.084 114.933 806.166 116.553L806.171 116.558C807.644 117.117 808.632 116.569 809.648 116.191C812.073 115.289 814.488 114.355 816.908 113.437C828.06 106.35 840.49 102.031 853.205 100.514V88.5187C852.304 88.8068 851.404 89.0992 850.511 89.407Z" fill="white"/>
<path d="M934.195 78.3252C931.986 76.9914 929.859 76.3911 927.746 75.9083C917.372 73.546 906.869 72.9012 896.256 73.6376C886.879 74.2879 877.703 76.0763 868.607 78.338C864.346 79.3996 864.217 79.3183 863.134 75.0099C862.518 72.5568 862.79 72.0882 865.272 71.5671C875.394 69.4392 885.543 67.4976 895.874 66.747C899.282 66.4983 902.703 66.4839 906.12 66.3596C908.849 66.2592 909.322 65.7954 909.246 63.0794C908.993 53.5969 908.067 44.172 907.013 34.7519C906.764 32.5378 906.497 30.3238 906.253 28.1099C905.829 24.1793 905.098 23.3806 901.271 22.5773C882.609 18.6705 864.125 19.7888 845.786 24.6279C845.253 24.7666 844.727 24.97 844.231 25.2135C843.321 25.6631 842.99 26.4318 843.3 27.4021C843.615 28.3872 843.992 29.3545 844.345 30.3252C849.68 44.9767 854.129 59.8946 857.503 75.1247C857.78 76.3632 858.009 77.6256 858.118 78.888C858.285 80.8341 858.066 81.2502 856.248 81.9914C853.456 83.1246 850.598 84.0939 847.792 85.1986C833.62 90.7788 820.811 98.6567 809.068 108.32C806.921 110.089 804.784 111.87 802.704 113.72C801.707 114.604 800.852 115.658 799.946 116.643C799.288 117.358 798.667 117.395 798.262 116.548C797.856 115.707 797.495 114.752 797.457 113.833C797.133 105.642 795.043 97.7852 792.967 89.943C790.811 81.7908 787.916 73.8772 784.276 66.2557C783.971 65.6109 783.703 64.9337 783.493 64.2557C782.888 62.2829 783.203 61.3392 784.801 60.0919C785.678 59.4088 786.591 58.773 787.416 58.0373C788.971 56.6515 789.366 56.7031 790.249 58.6775C791.255 60.9234 792.218 63.1914 793.2 65.4517C797.862 76.1821 801.981 87.1318 805.698 98.2257C805.989 99.1007 806.36 99.9495 806.775 101.035C808.807 98.7403 810.607 96.6253 812.51 94.6031C813.439 93.61 812.972 92.6953 812.609 91.7644C810.93 87.4812 809.202 83.2088 807.518 78.9257C803.682 69.1572 799.855 59.3787 796.028 49.6056C795.886 49.234 795.764 48.856 795.602 48.4939C794.872 46.8729 794.526 46.7413 793.185 47.8984C789.931 50.6954 786.719 53.5496 783.493 56.3847C783.018 56.8045 782.573 57.261 782.111 57.6949C781.311 58.4495 780.588 58.4585 779.992 57.4567C779.138 56.0235 778.257 54.6059 777.456 53.144C776.659 51.6809 777.1 50.3213 778.121 49.1833C780.569 46.4673 782.897 43.6125 785.603 41.1738C792.451 34.991 800.452 30.5449 808.741 26.6428C822.77 20.04 837.514 15.6833 852.755 13.02C858.767 11.968 864.825 11.1508 870.871 10.2805C871.963 10.1231 873.094 10.211 874.204 10.2111C878.417 10.2063 882.639 10.3054 886.848 10.1763C891.734 10.0283 896.479 11.0663 901.255 11.7644C909.76 13.0029 918.066 15.1149 925.978 18.5386C929.692 20.1452 933.258 22.0869 936.869 23.9182C938.266 24.6257 938.974 25.7115 938.741 27.4071C936.604 42.7942 938.459 57.9055 942 72.8959C944.615 83.9692 948.159 94.7589 951.756 105.531C951.933 106.056 952.117 106.585 952.237 107.124C952.598 108.757 952.245 109.508 950.696 110.077C946.505 111.602 942.186 111.992 937.787 111.361C930.556 110.328 923.336 109.229 916.112 108.201C913.139 107.78 912.628 107.407 911.923 104.542C910.333 98.1252 909.375 91.5981 908.648 85.0327C908.491 83.6076 908.248 82.1922 908.176 80.7672C908.091 78.9788 908.397 78.6202 910.152 78.5723C914.442 78.4528 918.732 78.393 923.027 78.35C926.596 78.3165 930.172 78.345 934.2 78.345L934.195 78.3252Z" fill="#0D0E12"/>
<path d="M827.834 238.78C829.323 241.945 831.18 244.594 833.27 247.062C847.099 263.348 867.842 265.414 884.54 258.508C892.91 255.047 900.087 249.917 906.138 243.179C909.239 239.727 910.791 239.659 913.926 243.045C919.89 249.491 926.7 254.756 934.832 258.141C943.737 261.851 952.956 263.487 962.58 261.77C968.101 260.785 972.952 258.268 977.386 254.921C982.878 250.771 987.682 245.926 991.609 240.241C991.79 239.977 991.972 239.718 992.125 239.437C992.195 239.308 992.182 239.134 992.224 238.886C991.753 238.886 991.29 238.83 990.847 238.896C982.719 240.149 974.854 239.038 967.134 236.384C959.574 233.783 952.478 230.248 945.888 225.739C939.628 221.455 932.913 220.436 925.702 222.588C920.405 224.171 915.013 225.041 909.496 224.84C907.874 224.783 906.252 224.234 904.663 223.792C904.171 223.659 903.58 223.229 903.394 222.784C903.108 222.096 902.888 221.191 903.112 220.541C903.265 220.097 904.191 219.786 904.82 219.666C906.138 219.423 907.516 219.48 908.815 219.183C913 218.227 915.415 215.129 915.587 210.791C915.725 207.253 914.818 203.996 913.066 200.974C911.793 198.769 910.365 196.661 909.011 194.504C908.586 193.83 908.156 193.16 907.765 192.471C907.345 191.736 907.088 190.856 907.865 190.316C908.518 189.861 909.415 189.535 910.194 189.559C910.819 189.579 911.52 190.095 912.022 190.57C918.917 197.034 923.407 204.608 922.868 214.473C922.859 214.612 922.977 214.755 923.117 215.085C924.209 214.86 925.35 214.626 926.49 214.396C934.406 212.775 941.831 214.015 948.689 218.332C955.288 222.492 961.993 226.413 969.4 229.02C975.403 231.134 981.553 232.133 987.89 231.516C992.473 231.07 996.577 229.148 1000.48 226.782C1002.86 225.336 1005.21 223.85 1007.6 222.439C1008.27 222.048 1009.05 221.787 1009.81 221.605C1010.56 221.425 1011.05 221.797 1011 222.628C1010.98 223.178 1010.95 223.759 1010.78 224.27C1010.46 225.17 1010.15 226.101 1009.63 226.886C1004.87 234.039 1000.28 241.316 995.215 248.246C989.899 255.517 983.314 261.54 975.078 265.432C967.18 269.168 958.858 270.759 950.097 269.995C940.648 269.168 932.055 265.85 923.846 261.311C923.359 261.044 922.92 260.694 922.462 260.379C920.382 258.939 919.609 258.935 917.604 260.613C915.921 262.024 914.111 263.071 911.888 263.358C908.553 263.789 905.588 262.951 902.951 260.904C902.573 260.613 902.206 260.307 901.866 259.972C900.916 259.044 899.938 259.068 898.846 259.738C897.085 260.818 895.31 261.886 893.502 262.879C884.769 267.69 875.363 270.133 865.442 270.215C853.613 270.315 843.205 266.327 834.253 258.519C827.567 252.685 822.614 245.498 817.995 238.034C815.15 233.438 812.335 228.819 809.548 224.186C809.061 223.381 808.618 222.488 808.446 221.578C808.331 220.981 808.551 220.016 808.976 219.714C809.376 219.432 810.393 219.581 810.875 219.92C812.631 221.145 814.349 222.449 815.952 223.869C820.28 227.699 825.195 230.34 830.912 231.3C836.157 232.186 841.344 231.716 846.469 230.344C855.321 227.977 863.29 223.731 870.892 218.738C878.15 213.976 886.001 212.751 894.399 214.479C895.172 214.636 895.949 214.87 896.655 215.21C898.637 216.161 899.41 217.992 898.742 219.939C898.058 221.928 896.403 222.836 894.207 222.44C892.57 222.143 890.944 221.727 889.293 221.613C883.51 221.206 878.336 223.037 873.57 226.183C868.315 229.651 862.865 232.744 856.986 235.039C848.029 238.539 838.853 240.396 829.209 238.846C828.837 238.789 828.455 238.804 827.853 238.775L827.834 238.78Z" fill="#0D0E12"/>
<path d="M865.701 108.198C878.476 108.442 889.942 109.398 901.323 111.354C909.145 112.698 916.959 114.139 924.795 115.377C932.658 116.625 940.484 115.809 948.299 114.633C958.941 113.031 968.474 108.82 977.292 102.777C981.357 99.989 985.49 97.2943 989.609 94.5782C991.412 93.388 993.327 92.4567 995.502 92.1266C999.644 91.5003 1002.09 93.9815 1001.36 98.1801C1000.82 101.317 999.481 104.159 997.191 106.32C994.657 108.711 991.948 110.966 989.084 112.945C981.525 118.167 973.403 122.296 964.603 125.055C957.956 127.139 951.141 128.1 944.209 128.31C932.937 128.65 921.862 126.976 910.863 124.762C898.937 122.362 886.969 120.32 874.83 119.478C854.305 118.058 834.191 119.99 814.817 127.368C804.963 131.122 795.688 136.004 787.346 142.469C778.625 149.23 773.911 158.447 772.216 169.248C770.933 177.425 771.536 185.449 774.623 193.213C775.758 196.066 775.558 196.444 773.197 198.226C771.675 199.374 770.217 200.602 768.7 201.759C766.945 203.097 766.414 202.975 765.575 200.911C763.685 196.268 762.202 191.502 761.347 186.548C759.057 173.321 761.23 160.884 767.992 149.293C772.348 141.825 778.617 136.233 785.841 131.695C790.346 128.869 794.945 126.155 799.688 123.764C803.291 121.947 807.187 120.726 810.952 119.239C819.833 115.739 828.837 112.612 838.243 110.847C844.494 109.675 850.793 108.882 857.159 108.643C860.413 108.518 863.668 108.298 865.696 108.188L865.701 108.198Z" fill="#0D0E12"/>
<path d="M801.417 233.013C801.45 233.309 801.541 233.521 801.474 233.606C799.852 235.686 800.596 237.737 801.388 239.889C805.812 251.906 812.613 262.327 821.999 271.03C827.573 276.199 833.895 280.315 840.533 283.973C850.759 289.606 861.539 293.743 873.006 295.975C882.106 297.749 891.278 298.084 900.517 297.224C914.526 295.918 927.678 291.695 940.324 285.699C944.141 283.887 947.793 281.764 950.789 278.708C953.906 275.533 957.817 274.193 962.092 273.69C963.891 273.48 965.698 273.355 967.743 273.169C967.454 273.679 967.344 273.982 967.144 274.201C960.988 280.958 953.918 286.53 946.12 291.308C939.99 295.061 933.541 298.095 926.894 300.667C922.924 302.201 918.693 303.158 914.508 304.027C906.635 305.672 898.655 306.595 890.602 306.524C873.691 306.375 857.485 303.032 842.349 295.263C831.327 289.602 821.306 282.501 812.431 273.789C805.732 267.211 800.003 259.929 795.899 251.447C795.037 249.661 794.334 247.787 793.557 245.958C792.364 243.149 790.864 242.337 787.817 242.385C786.177 242.408 784.501 242.097 782.894 241.72C772.245 239.234 767.268 231.786 765.53 221.928C765.087 219.396 765.053 216.877 765.501 214.33C765.892 212.102 766.655 210.049 767.818 208.122C771.34 202.296 776.774 199.244 783.15 197.704C787.798 196.58 792.498 196.882 797.05 198.273C802.161 199.833 805.387 203.62 807.826 208.166C808.25 208.96 808.37 210.023 807.539 210.557C806.986 210.916 805.993 210.974 805.349 210.745C803.631 210.137 801.985 209.319 800.329 208.553C794.392 205.81 788.265 205.206 782.005 207.162C776.76 208.802 774.033 212.552 773.999 218.012C773.99 219.752 774.123 221.536 774.514 223.223C776.008 229.63 780.611 233.477 787.516 233.803C790.584 233.945 793.686 233.468 796.764 233.19C798.325 233.051 799.871 232.716 801.417 233.013Z" fill="#0D0E12"/>
<path d="M780.411 186.8C780.125 179.106 782.477 172.105 786.114 165.444C793.367 152.16 804.342 142.989 817.785 136.491C827.09 131.991 836.868 129.151 847.109 127.974C855.016 127.066 862.961 126.874 870.883 127.917C872.911 128.185 874.9 128.782 876.891 129.294C877.596 129.476 878.365 129.93 878.031 130.776C877.864 131.202 877.091 131.57 876.557 131.637C862.904 133.296 849.858 137.103 837.35 142.779C828.197 146.934 819.622 152.07 811.863 158.492C802.515 166.234 797.91 176.413 796.874 188.364C796.784 189.397 796.779 190.434 796.669 191.462C796.473 193.317 796.101 193.59 794.207 193.418C792.16 193.232 790.108 192.921 788.061 192.94C786.5 192.954 784.925 193.337 783.384 193.676C781.27 194.14 780.578 193.748 780.425 191.578C780.316 189.994 780.401 188.397 780.401 186.804L780.411 186.8Z" fill="#0D0E12"/>
<path d="M873.154 330.533C878.112 327.409 882.553 324.625 886.982 321.829C889.2 320.427 891.474 319.1 893.579 317.546C896.174 315.634 898.534 315.687 901.215 317.457C907.452 321.569 913.801 325.51 920.109 329.511C920.572 329.803 921.065 330.052 921.769 330.449C921.836 329.8 921.927 329.302 921.927 328.806C921.942 323.388 921.939 317.971 921.943 312.553C921.943 311.993 921.928 311.431 921.972 310.876C922.129 308.877 922.438 308.559 924.433 308.439C925.782 308.358 927.134 308.301 928.484 308.32C930.443 308.345 931.085 308.946 931.089 310.881C931.113 320.206 931.141 329.528 931.079 338.851C931.055 342.649 927.971 344.599 924.502 343.05C922.919 342.343 921.42 341.404 919.961 340.449C913.247 336.05 906.534 331.638 899.878 327.154C898.266 326.068 896.958 326.03 895.322 327.119C887.969 332.002 880.556 336.799 873.149 341.605C872.292 342.165 871.379 342.687 870.43 343.05C866.705 344.475 863.843 342.563 863.809 338.583C863.752 332.052 863.784 325.512 863.774 318.98C863.774 316.271 863.741 313.562 863.774 310.851C863.798 308.687 864.133 308.358 866.27 308.33C867.539 308.317 868.82 308.344 870.084 308.434C871.991 308.568 872.746 309.328 872.966 311.263C873.027 311.812 872.996 312.377 872.996 312.935C873.006 317.874 873.008 322.816 873.026 327.754C873.026 328.509 873.097 329.27 873.165 330.537L873.154 330.533Z" fill="#0D0E12"/>
<path d="M957.952 130.807C960.205 130.147 962.158 129.522 964.138 129.015C966.451 128.427 967.247 128.792 968.397 130.896C972.437 138.306 975.656 146.068 978.366 154.057C981.315 162.744 983.428 171.635 984.998 180.663C986.296 188.107 987.582 195.561 988.702 203.035C989.756 210.076 989.428 217.185 989.208 224.266C989.102 227.552 988.451 228.115 985.127 228.742C983.965 228.961 982.777 229.051 981.6 229.189C980.455 229.322 979.988 228.69 979.997 227.651C980.008 226.776 980.18 225.906 980.18 225.036C980.198 217.472 980.556 209.883 980.137 202.337C978.753 177.472 972.34 154.07 959.046 132.797C958.713 132.266 958.442 131.694 957.952 130.807Z" fill="#0D0E12"/>
<path d="M806.166 116.553C808.084 114.933 809.808 113.451 811.559 112.003C823.284 102.286 836.067 94.3992 850.511 89.407C852.759 88.6324 855.036 87.9182 857.326 87.2871C859.211 86.7658 860.07 87.33 860.433 89.1567C861.287 93.4364 862.127 97.721 862.957 102.01C863.282 103.693 863.086 103.952 861.411 104.062C857.608 104.305 853.8 104.459 850.006 104.788C842.07 105.477 834.368 107.39 826.833 109.872C821.035 111.779 815.369 114.063 809.648 116.191C808.632 116.569 807.644 117.117 806.171 116.558L806.166 116.553Z" fill="#0D0E12"/>
<path d="M1009.55 200.672C1009.63 207.929 1006.46 213.901 1000.51 218.4C998.497 219.924 996.31 221.242 994.106 222.489C992.723 223.273 992.236 222.9 992.278 221.273C992.335 219.145 992.384 216.995 992.694 214.896C992.819 214.055 993.521 213.223 994.145 212.558C994.671 211.999 995.472 211.702 996.131 211.258C1000.71 208.155 1002.91 203.998 1001.7 198.395C1000.65 193.499 998.246 189.682 993.175 188.161C989.082 186.932 988.836 183.451 989.094 180.052C989.179 178.91 990.212 178.864 991.129 178.945C994.682 179.276 997.965 180.396 1000.75 182.668C1006.33 187.224 1009.72 192.918 1009.55 200.672Z" fill="#0D0E12"/>
<path d="M940.197 145.122C943.771 145.384 947.035 146.074 949.884 147.953C955.119 151.41 959.179 155.866 961.064 162.015C961.317 162.847 961.598 163.737 961.537 164.575C961.494 165.157 960.992 165.865 960.492 166.196C960.271 166.338 959.352 165.793 959.055 165.358C957.992 163.781 957.103 162.088 956.068 160.49C954.765 158.478 953.195 156.704 951.2 155.321C948.318 153.322 945.197 152.816 941.939 154.026C939.872 154.79 937.915 155.876 935.935 156.866C933.663 157.999 931.44 159.228 929.159 160.342C927.417 161.193 926.233 161.05 925.212 160.031C924.052 158.874 923.623 157.176 924.578 155.671C928.276 149.832 933.287 145.877 940.197 145.122Z" fill="#0D0E12"/>
<path d="M860.758 153.302C858.023 153.411 855.666 154.396 853.881 156.304C852.001 158.322 850.407 160.613 848.742 162.821C848.031 163.768 847.539 164.892 846.785 165.8C846.069 166.662 845.101 166.389 844.853 165.294C844.7 164.619 844.648 163.821 844.862 163.186C845.516 161.239 846.093 159.207 847.115 157.456C849.601 153.186 853.118 149.896 857.436 147.462C862.729 144.478 867.992 144.531 873.289 147.434C876.567 149.232 879.178 151.747 881.191 154.86C881.678 155.61 881.97 156.619 881.994 157.524C882.064 160.139 880.084 161.55 877.713 160.517C875.388 159.504 873.194 158.207 870.927 157.065C869.018 156.102 867.128 155.065 865.143 154.295C863.764 153.759 862.223 153.617 860.758 153.302Z" fill="#0D0E12"/>
<path d="M821.564 172.789C823.296 172.903 824.847 172.745 825.463 174.487C825.868 175.633 824.995 177.079 823.311 178.083C822.705 178.44 822.032 178.698 821.364 178.928C817.408 180.277 813.433 181.577 809.481 182.955C808.012 183.467 806.695 183.452 805.521 182.343C804.266 181.157 804.165 179.35 805.387 178.116C805.984 177.513 806.723 176.911 807.506 176.668C811.5 175.428 815.527 174.3 819.555 173.161C820.309 172.951 821.092 172.875 821.564 172.789Z" fill="#0D0E12"/>
<path d="M824.385 181.843C824.781 181.843 825.182 181.796 825.573 181.853C827.749 182.159 828.546 183.851 827.196 185.607C826.556 186.443 825.602 187.189 824.628 187.591C820.453 189.307 816.225 190.895 812.002 192.483C811.357 192.726 810.594 192.927 809.935 192.822C808.604 192.617 807.602 191.785 807.187 190.479C806.81 189.298 807.321 188.27 808.198 187.5C808.781 186.988 809.458 186.515 810.179 186.253C813.743 184.962 817.332 183.722 820.925 182.518C822.037 182.144 823.206 181.934 824.347 181.648C824.361 181.709 824.375 181.781 824.385 181.843Z" fill="#0D0E12"/>
<path d="M945.818 159.856C946.314 159.825 946.808 159.784 947.304 159.772C950.326 159.712 951.043 160.286 951.06 163.298C951.067 164.965 951.752 165.866 953.212 166.44C956.594 167.761 958.073 170.749 959.248 173.826C960.291 176.556 959.152 178.48 956.29 179.239C954.768 179.639 953.188 179.884 951.621 179.991C951.096 180.027 950.381 179.549 950.017 179.095C949.605 178.581 949.641 177.685 949.205 177.201C948.442 176.353 947.577 175.427 946.558 175.003C944.924 174.321 943.339 175.122 942.855 176.502C942.426 177.733 942.843 178.683 944.555 179.525C946.415 180.445 948.389 181.115 950.285 181.97C951.906 182.698 953.541 183.433 955.079 184.324C962.8 188.806 962.122 200.54 953.929 204.568C953.397 204.83 952.872 205.135 952.306 205.285C950.904 205.661 950.559 206.528 950.571 207.938C950.59 210.704 949.706 211.475 947.04 211.487C945.76 211.487 944.478 211.54 943.195 211.523C940.803 211.487 939.868 210.704 939.981 208.296C940.07 206.396 939.36 205.416 937.709 204.628C933.703 202.728 932.229 199.101 931.604 195.001C931.383 193.531 931.944 192.445 933.447 192.049C935.168 191.595 936.91 191.196 938.651 190.8C939.909 190.514 940.78 190.968 941.151 192.258C941.257 192.642 941.412 193.005 941.549 193.382C942.582 196.202 945.329 197.249 948.001 195.839C949.885 194.847 950.082 192.695 948.282 191.559C947.119 190.831 945.741 190.449 944.495 189.844C941.74 188.506 938.742 187.497 936.326 185.691C930.137 181.072 931.007 170.42 937.757 166.668C939.581 165.652 940.726 164.595 940.583 162.306C940.47 160.572 941.323 159.897 943.135 159.772C944.025 159.712 944.919 159.76 945.813 159.76C945.813 159.784 945.813 159.808 945.813 159.832L945.818 159.856Z" fill="#F2330D"/>
<path d="M866.721 159.759C867.255 159.759 867.79 159.765 868.331 159.759C871.817 159.701 872.268 160.048 872.326 163.504C872.352 165.13 872.989 166.228 874.413 166.784C877.919 168.151 879.716 171.025 881.07 174.254C882.526 177.74 881.225 180.212 877.61 180.969C876.778 181.142 875.895 181.096 875.051 181.233C871.92 181.731 871.895 181.756 870.67 178.928C869.961 177.295 868.718 176.397 867.056 176.049C865.567 175.738 864.156 176.487 863.615 177.784C863.1 179.005 863.505 180.096 865.123 180.883C867.23 181.916 869.459 182.699 871.598 183.679C873.447 184.519 875.317 185.358 877.043 186.41C884.704 191.079 884.027 202.287 877.725 206.728C876.849 207.342 875.966 208.02 874.981 208.382C872.887 209.151 871.514 210.093 871.862 212.778C872.094 214.561 870.96 215.407 869.027 215.542C867.429 215.659 865.819 215.632 864.221 215.632C861.611 215.627 860.219 214.464 860.593 211.914C860.883 209.931 860.174 209.234 858.609 208.537C854.144 206.548 852.32 202.61 851.386 198.148C850.98 196.224 851.811 195.036 853.686 194.533C855.342 194.088 857.011 193.694 858.693 193.358C860.832 192.932 861.45 193.363 862.114 195.605C863.061 198.806 865.374 200.053 868.499 199.052C869.717 198.658 870.761 197.877 870.645 196.58C870.567 195.649 870.007 194.424 869.266 193.958C867.648 192.951 865.773 192.358 864.014 191.582C861.862 190.632 859.62 189.84 857.591 188.684C850.007 184.364 850.664 170.856 858.022 167.235C860.123 166.202 861.521 165.072 861.212 162.36C861.018 160.681 862.075 159.914 863.841 159.765C864.801 159.687 865.767 159.752 866.733 159.752V159.765L866.721 159.759Z" fill="#F2330D"/>
<defs>
<linearGradient id="paint0_linear_19084_39053" x1="560.976" y1="145.872" x2="560.976" y2="251.872" gradientUnits="userSpaceOnUse">
<stop stop-color="#EE2B0B"/>
<stop offset="1" stop-color="#DB0D02"/>
</linearGradient>
<linearGradient id="paint1_linear_19084_39053" x1="560.976" y1="145.872" x2="560.976" y2="251.872" gradientUnits="userSpaceOnUse">
<stop stop-color="#EE2B0B"/>
<stop offset="1" stop-color="#DB0D02"/>
</linearGradient>
<linearGradient id="paint2_linear_19084_39053" x1="560.976" y1="145.872" x2="560.976" y2="251.872" gradientUnits="userSpaceOnUse">
<stop stop-color="#EE2B0B"/>
<stop offset="1" stop-color="#DB0D02"/>
</linearGradient>
<linearGradient id="paint3_linear_19084_39053" x1="722.236" y1="176.872" x2="1040.61" y2="176.872" gradientUnits="userSpaceOnUse">
<stop stop-color="#F2330D"/>
<stop offset="1" stop-color="#D80700"/>
</linearGradient>
</defs>
</svg>
