<svg width="1050" height="173" viewBox="0 0 1050 173" fill="none" xmlns="http://www.w3.org/2000/svg">
<path d="M0.209473 0.29541V172.695H95.9902L172.609 78.3493V0.29541H0.209473ZM17.6856 155.219V82.2152C20.1843 66.41 33.8933 54.2883 50.3897 54.2883C68.6481 54.2883 83.504 69.1442 83.504 87.4026C83.504 95.0964 81.59 101.355 77.8229 106.003L37.8504 155.211H17.678L17.6856 155.219ZM155.133 72.1518L87.6736 155.219H60.3848L91.4028 117.023C97.7674 109.178 100.995 99.2129 100.995 87.4026C100.995 59.5061 78.2938 36.8122 50.4049 36.8122C37.9415 36.8122 26.5262 41.3389 17.7008 48.8427V17.7791H155.148V72.1518H155.133Z" fill="#3772FF"/>
<path d="M224.873 158.611V12.3174H278.559C292.875 12.3174 304.507 16.5675 313.455 25.0678C322.551 33.4189 327.1 44.156 327.1 57.2792C327.1 70.2533 322.626 80.7667 313.678 88.8196C304.731 96.7233 293.024 100.675 278.559 100.675H243.439V158.611H224.873ZM243.439 83.0036H276.322C286.463 83.0036 294.292 80.7667 299.809 76.2929C305.476 71.67 308.31 65.1084 308.31 56.6082C308.31 47.9588 305.551 41.3972 300.033 36.9234C294.515 32.3004 286.612 29.989 276.322 29.989H243.439V83.0036Z" fill="#EEEDFF"/>
<path d="M356.267 137.584L356.491 141.387H431.203V158.611H337.701V132.887L388.702 90.6091C396.009 84.7932 401.601 78.4553 405.479 71.5954C409.356 64.7356 411.295 58.0994 411.295 51.687C411.295 44.0815 408.834 38.0418 403.913 33.568C398.992 28.9451 392.43 26.6336 384.228 26.6336C376.175 26.6336 369.763 29.1688 364.991 34.2391C360.368 39.3094 357.087 47.064 355.148 57.5029L337.701 53.9239C342.771 24.2476 358.355 9.40942 384.452 9.40942C398.022 9.40942 408.983 13.2867 417.334 21.0413C425.835 28.796 430.085 38.862 430.085 51.2396C430.085 59.889 427.475 68.6875 422.256 77.6351C417.036 86.4336 409.729 94.561 400.334 102.017L370.807 128.413L356.267 137.584Z" fill="#EEEDFF"/>
<path d="M447.253 158.611V12.3174H500.939C515.255 12.3174 526.887 16.5675 535.834 25.0678C544.931 33.4189 549.48 44.156 549.48 57.2792C549.48 70.2533 545.006 80.7667 536.058 88.8196C527.111 96.7233 515.404 100.675 500.939 100.675H465.819V158.611H447.253ZM465.819 83.0036H498.702C508.842 83.0036 516.672 80.7667 522.189 76.2929C527.856 71.67 530.69 65.1084 530.69 56.6082C530.69 47.9588 527.931 41.3972 522.413 36.9234C516.895 32.3004 508.992 29.989 498.702 29.989H465.819V83.0036Z" fill="#EEEDFF"/>
<path d="M564.778 55.7134H583.344L577.305 82.78L583.344 84.7932V158.611H564.778V55.7134ZM615.108 72.7139C606.459 72.7139 599.003 75.1745 592.739 80.0957C586.476 84.8677 583.344 91.0565 583.344 98.662L580.436 94.8593C580.436 82.78 583.717 73.1613 590.279 66.0032C596.84 58.6959 605.639 55.0423 616.674 55.0423H624.503V72.7139H615.108Z" fill="#EEEDFF"/>
<path d="M638.853 36.9234C636.616 34.5373 635.497 31.7785 635.497 28.6468C635.497 25.5152 636.616 22.8309 638.853 20.594C641.09 18.3571 643.774 17.2386 646.906 17.2386C650.037 17.2386 652.722 18.3571 654.958 20.594C657.195 22.8309 658.314 25.5152 658.314 28.6468C658.314 31.7785 657.195 34.5373 654.958 36.9234C652.722 39.1603 650.037 40.2787 646.906 40.2787C643.774 40.2787 641.09 39.1603 638.853 36.9234ZM637.958 55.7134H656.524V158.611H637.958V55.7134Z" fill="#EEEDFF"/>
<path d="M722.714 130.426L747.767 55.7134H768.123L732.78 158.611H704.595L669.252 55.7134H689.384L714.661 130.426L717.345 142.953H720.03L722.714 130.426Z" fill="#EEEDFF"/>
<path d="M794.505 131.545C794.505 136.167 796.443 139.672 800.321 142.058C804.347 144.444 809.567 145.637 815.979 145.637C824.778 145.637 831.861 143.176 837.23 138.255C842.747 133.334 845.506 127.071 845.506 119.465H849.085C849.085 132.439 845.506 142.878 838.348 150.782C831.19 158.537 821.795 162.414 810.163 162.414C800.172 162.414 791.895 159.73 785.333 154.361C778.921 148.843 775.715 141.834 775.715 133.334C775.715 125.878 777.952 119.987 782.425 115.662C787.048 111.189 794.132 107.61 803.676 104.925L845.506 94.4119V108.504L810.163 116.781C799.724 119.316 794.505 124.237 794.505 131.545ZM864.296 158.611H845.506L851.546 131.992L845.506 129.531V90.6091C845.506 84.0475 843.195 78.7535 838.572 74.7271C834.098 70.7007 828.133 68.6875 820.677 68.6875C813.22 68.6875 807.106 70.9244 802.334 75.3982C797.711 79.7229 794.952 85.3897 794.057 92.3987L775.715 89.267C777.355 78.3807 782.202 69.4331 790.255 62.4241C798.307 55.4151 808.597 51.9106 821.124 51.9106C833.8 51.9106 844.164 55.4151 852.217 62.4241C860.27 69.4331 864.296 78.0079 864.296 88.1485V158.611Z" fill="#EEEDFF"/>
<path d="M912.428 71.8191V124.61C912.428 132.514 913.323 137.435 915.112 139.374C916.902 141.312 921.078 142.282 927.639 142.282H945.982V158.611H922.718C913.174 158.611 905.941 156.374 901.02 151.9C896.099 147.277 893.638 139.075 893.638 127.294V71.8191H873.282V55.7134H893.638V25.5152L912.428 23.0546V55.7134H945.982V71.8191H912.428Z" fill="#EEEDFF"/>
<path d="M970.142 112.083C971.037 122.821 974.243 131.172 979.761 137.137C985.428 142.953 993.108 145.861 1002.8 145.861C1010.56 145.861 1016.97 143.848 1022.04 139.821C1027.26 135.795 1030.61 130.277 1032.1 123.268L1050 126.4C1047.46 137.733 1041.95 146.606 1033.45 153.019C1025.1 159.282 1014.88 162.414 1002.8 162.414C986.695 162.414 974.019 157.493 964.773 147.65C955.677 137.659 951.128 124.014 951.128 106.715C951.128 89.5652 955.528 76.0692 964.326 66.2269C973.125 56.3845 985.129 51.4633 1000.34 51.4633C1015.85 51.4633 1028 56.459 1036.8 66.4505C1045.6 76.2929 1050 89.267 1050 105.373V112.083H970.142ZM970.589 98.2146H1030.99C1030.99 89.4161 1028.08 82.1834 1022.26 76.5166C1016.45 70.7007 1009.14 67.7927 1000.34 67.7927C991.989 67.7927 985.204 70.477 979.984 75.8456C974.914 81.065 971.782 88.5214 970.589 98.2146Z" fill="#EEEDFF"/>
</svg>
