<svg width="150" height="31" viewBox="0 0 150 31" fill="none" xmlns="http://www.w3.org/2000/svg">
<path d="M20.6847 0H10.2124C4.57223 0 0 4.58746 0 10.2464V20.7536C0 26.4125 4.57223 31 10.2124 31H20.6847C26.3249 31 30.8971 26.4125 30.8971 20.7536V10.2464C30.8971 4.58746 26.3249 0 20.6847 0Z" fill="#0243DB"/>
<path d="M38.509 8.98117H42.4316V12.829L42.2782 13.3567V16.5229L42.4316 17.4684V25.1421H38.509V8.98117ZM41.1168 15.2477C41.3505 13.9137 41.7744 12.7557 42.3877 11.7736C43.0014 10.7768 43.7757 10.0073 44.7106 9.46493C45.6603 8.92256 46.7123 8.65137 47.8665 8.65137C49.0935 8.65137 50.1674 8.92989 51.088 9.4869C52.0229 10.0293 52.7532 10.7988 53.2794 11.7956C53.8052 12.7777 54.0681 13.9284 54.0681 15.2477C54.0681 16.5669 53.8052 17.7249 53.2794 18.7217C52.7532 19.7038 52.0229 20.4734 51.088 21.0304C50.1674 21.5874 49.0935 21.8659 47.8665 21.8659C46.6979 21.8659 45.6459 21.5947 44.7106 21.0524C43.7904 20.4954 43.0161 19.7258 42.3877 18.7437C41.7744 17.7469 41.3505 16.5816 41.1168 15.2477ZM50.0799 15.2477C50.0799 14.5587 49.9337 13.9504 49.6416 13.4227C49.364 12.8803 48.9768 12.4626 48.4802 12.1694C47.9832 11.8616 47.4062 11.7077 46.749 11.7077C46.0914 11.7077 45.4633 11.8616 44.864 12.1694C44.2799 12.4626 43.7685 12.8803 43.3302 13.4227C42.8919 13.9504 42.5487 14.5587 42.3002 15.2477C42.5487 15.9513 42.8919 16.5669 43.3302 17.0946C43.7685 17.6223 44.2799 18.0401 44.864 18.3479C45.4633 18.6557 46.0914 18.8096 46.749 18.8096C47.4062 18.8096 47.9832 18.6557 48.4802 18.3479C48.9768 18.0401 49.364 17.6223 49.6416 17.0946C49.9337 16.5669 50.0799 15.9513 50.0799 15.2477ZM56.1213 8.98117H60.0659V21.5141H56.1213V8.98117ZM66.0486 8.82727V12.2354C65.669 12.1474 65.2818 12.0814 64.8871 12.0374C64.5075 11.9935 64.1568 11.9715 63.8355 11.9715C63.1196 11.9715 62.4767 12.1181 61.907 12.4113C61.3372 12.7044 60.8842 13.1662 60.5481 13.7965C60.2269 14.4121 60.0659 15.211 60.0659 16.1931L59.2772 15.2037C59.3647 14.3242 59.5253 13.4887 59.7591 12.6971C59.9932 11.8909 60.3144 11.1873 60.7235 10.5863C61.1327 9.9853 61.6441 9.5162 62.2574 9.17907C62.8711 8.82727 63.6018 8.65137 64.4488 8.65137C64.7121 8.65137 64.9822 8.66604 65.2599 8.69535C65.5375 8.72465 65.8004 8.76863 66.0486 8.82727ZM74.3435 21.8659C72.7805 21.8659 71.4069 21.5874 70.2235 21.0304C69.0405 20.4734 68.1199 19.6965 67.4623 18.6997C66.8051 17.7029 66.4762 16.5522 66.4762 15.2477C66.4762 13.9284 66.8051 12.7777 67.4623 11.7956C68.1199 10.7988 69.0405 10.0293 70.2235 9.4869C71.4069 8.92989 72.7805 8.65137 74.3435 8.65137C75.9213 8.65137 77.2949 8.92989 78.4635 9.4869C79.6469 10.0293 80.5675 10.7988 81.2247 11.7956C81.8823 12.7777 82.2112 13.9284 82.2112 15.2477C82.2112 16.5669 81.8823 17.7249 81.2247 18.7217C80.5675 19.7038 79.6469 20.4734 78.4635 21.0304C77.2801 21.5874 75.9069 21.8659 74.3435 21.8659ZM74.3435 18.8756C75.1618 18.8756 75.8557 18.729 76.4255 18.4359C77.01 18.1427 77.4555 17.7249 77.7623 17.1826C78.0836 16.6402 78.2446 15.9952 78.2446 15.2477C78.2446 14.5001 78.0836 13.8551 77.7623 13.3127C77.4555 12.7704 77.01 12.3526 76.4255 12.0595C75.8557 11.7663 75.1618 11.6197 74.3435 11.6197C73.5548 11.6197 72.868 11.7663 72.2835 12.0595C71.6994 12.3526 71.2463 12.7704 70.9251 13.3127C70.6182 13.8551 70.4648 14.5001 70.4648 15.2477C70.4648 16.0099 70.6182 16.6622 70.9251 17.2045C71.2463 17.7322 71.6994 18.1427 72.2835 18.4359C72.868 18.729 73.5548 18.8756 74.3435 18.8756ZM82.5722 11.9275V10.1905L85.158 9.28903L86.8456 5.66107H89.103V8.98117H94.5375V11.9275H89.103V16.2151C89.103 17.1533 89.2928 17.8129 89.6727 18.194C90.0671 18.5751 90.761 18.7657 91.7543 18.7657C92.368 18.7657 92.9158 18.7144 93.398 18.6118C93.8802 18.4945 94.3329 18.3333 94.7568 18.128V21.1403C94.3185 21.3162 93.7488 21.4775 93.0476 21.624C92.346 21.7853 91.6157 21.8659 90.8561 21.8659C89.5413 21.8659 88.4601 21.6534 87.6127 21.2283C86.7797 20.8032 86.1588 20.2095 85.7497 19.4473C85.3553 18.6851 85.158 17.7909 85.158 16.7648V11.9275H82.5722ZM103.268 21.8659C101.704 21.8659 100.331 21.5874 99.1477 21.0304C97.9642 20.4734 97.0437 19.6965 96.3865 18.6997C95.7288 17.7029 95.4 16.5522 95.4 15.2477C95.4 13.9284 95.7288 12.7777 96.3865 11.7956C97.0437 10.7988 97.9642 10.0293 99.1477 9.4869C100.331 8.92989 101.704 8.65137 103.268 8.65137C104.845 8.65137 106.219 8.92989 107.387 9.4869C108.571 10.0293 109.491 10.7988 110.149 11.7956C110.806 12.7777 111.135 13.9284 111.135 15.2477C111.135 16.5669 110.806 17.7249 110.149 18.7217C109.491 19.7038 108.571 20.4734 107.387 21.0304C106.204 21.5874 104.831 21.8659 103.268 21.8659ZM103.268 18.8756C104.086 18.8756 104.78 18.729 105.349 18.4359C105.934 18.1427 106.379 17.7249 106.686 17.1826C107.008 16.6402 107.168 15.9952 107.168 15.2477C107.168 14.5001 107.008 13.8551 106.686 13.3127C106.379 12.7704 105.934 12.3526 105.349 12.0595C104.78 11.7663 104.086 11.6197 103.268 11.6197C102.479 11.6197 101.792 11.7663 101.208 12.0595C100.623 12.3526 100.17 12.7704 99.8488 13.3127C99.542 13.8551 99.3886 14.5001 99.3886 15.2477C99.3886 16.0099 99.542 16.6622 99.8488 17.2045C100.17 17.7322 100.623 18.1427 101.208 18.4359C101.792 18.729 102.479 18.8756 103.268 18.8756ZM127.466 16.347C127.335 17.4317 126.926 18.3919 126.239 19.2274C125.552 20.0483 124.669 20.6932 123.587 21.1623C122.506 21.6314 121.294 21.8659 119.95 21.8659C118.445 21.8659 117.115 21.5874 115.961 21.0304C114.822 20.4734 113.93 19.6965 113.287 18.6997C112.645 17.7029 112.323 16.5522 112.323 15.2477C112.323 13.943 112.645 12.7997 113.287 11.8176C113.93 10.8208 114.822 10.0439 115.961 9.4869C117.115 8.92989 118.445 8.65137 119.95 8.65137C121.294 8.65137 122.506 8.88592 123.587 9.35497C124.669 9.8094 125.552 10.4543 126.239 11.2899C126.926 12.1108 127.335 13.0709 127.466 14.1703H123.543C123.368 13.3494 122.952 12.7191 122.294 12.2793C121.652 11.8396 120.87 11.6197 119.95 11.6197C119.219 11.6197 118.576 11.7663 118.021 12.0595C117.466 12.338 117.042 12.7484 116.75 13.2908C116.458 13.8331 116.312 14.4854 116.312 15.2477C116.312 16.0099 116.458 16.6622 116.75 17.2045C117.042 17.7469 117.466 18.1647 118.021 18.4578C118.576 18.7364 119.219 18.8756 119.95 18.8756C120.885 18.8756 121.674 18.6484 122.316 18.194C122.959 17.7249 123.368 17.1093 123.543 16.347H127.466ZM136.386 21.8659C134.823 21.8659 133.45 21.5874 132.266 21.0304C131.083 20.4734 130.162 19.6965 129.505 18.6997C128.847 17.7029 128.519 16.5522 128.519 15.2477C128.519 13.9284 128.847 12.7777 129.505 11.7956C130.162 10.7988 131.083 10.0293 132.266 9.4869C133.45 8.92989 134.823 8.65137 136.386 8.65137C137.964 8.65137 139.337 8.92989 140.506 9.4869C141.69 10.0293 142.61 10.7988 143.267 11.7956C143.925 12.7777 144.253 13.9284 144.253 15.2477C144.253 16.5669 143.925 17.7249 143.267 18.7217C142.61 19.7038 141.69 20.4734 140.506 21.0304C139.323 21.5874 137.949 21.8659 136.386 21.8659ZM136.386 18.8756C137.204 18.8756 137.898 18.729 138.468 18.4359C139.052 18.1427 139.498 17.7249 139.805 17.1826C140.126 16.6402 140.287 15.9952 140.287 15.2477C140.287 14.5001 140.126 13.8551 139.805 13.3127C139.498 12.7704 139.052 12.3526 138.468 12.0595C137.898 11.7663 137.204 11.6197 136.386 11.6197C135.597 11.6197 134.91 11.7663 134.326 12.0595C133.742 12.3526 133.289 12.7704 132.967 13.3127C132.66 13.8551 132.507 14.5001 132.507 15.2477C132.507 16.0099 132.66 16.6622 132.967 17.2045C133.289 17.7322 133.742 18.1427 134.326 18.4359C134.91 18.729 135.597 18.8756 136.386 18.8756ZM146.077 4.58366H150V21.5141H146.077V4.58366Z" fill="white"/>
<path d="M6.98265 19.3644C6.98265 16.7426 8.81521 14.4801 11.3731 13.9439L19.414 12.258C19.55 12.2295 19.6176 12.1908 19.6451 12.1722C19.673 12.1533 19.6902 12.1348 19.7044 12.1131C19.7379 12.0622 19.7823 11.9447 19.7649 11.7761C19.7475 11.6076 19.6802 11.5017 19.637 11.4587C19.6186 11.4405 19.5982 11.4258 19.5669 11.413C19.5362 11.4005 19.4621 11.3764 19.3232 11.3764H6.9822V6.28429H19.3232C25.9608 6.28429 26.9493 15.8804 20.4521 17.2426L12.4111 18.9283C12.2053 18.9715 12.0578 19.1535 12.0578 19.3644V24.9757H6.98265V19.3644Z" fill="white"/>
<path d="M24.8451 21.7804C24.8451 23.5451 23.4192 24.9757 21.6604 24.9757C19.9015 24.9757 18.4756 23.5451 18.4756 21.7804C18.4756 20.0156 19.9015 18.5851 21.6604 18.5851C23.4192 18.5851 24.8451 20.0156 24.8451 21.7804Z" fill="#719CFF"/>
</svg>
