<svg width="215" height="14" viewBox="0 0 215 14" fill="none" xmlns="http://www.w3.org/2000/svg">
<g clip-path="url(#clip0)">
<path d="M21.9589 5.82913L14.641 0L7.31795 5.82913L0 0V14H29.2516V0L21.9589 5.82913Z" fill="#FF3C32"/>
<path d="M62.041 0.8125V14H73.1088V0.8125H62.041Z" fill="#FF3C32"/>
<path d="M210.792 5.7231H200.31C200.107 5.70705 199.918 5.61529 199.78 5.4661C199.643 5.3169 199.566 5.12124 199.566 4.91812C199.566 4.715 199.643 4.51935 199.78 4.37015C199.918 4.22096 200.107 4.12919 200.31 4.11315H213.098V0.8125H192.578C191.48 0.8125 190.428 1.24851 189.652 2.02462C188.875 2.80072 188.439 3.85335 188.439 4.95093C188.439 6.04851 188.875 7.10113 189.652 7.87724C190.428 8.65335 191.48 9.08936 192.578 9.08936H203.711C203.925 9.08936 204.131 9.17443 204.282 9.32587C204.434 9.4773 204.519 9.68269 204.519 9.89686C204.519 10.111 204.434 10.3164 204.282 10.4678C204.131 10.6193 203.925 10.7044 203.711 10.7044H188.899V14H210.792C211.89 14 212.942 13.5639 213.718 12.7878C214.494 12.0117 214.93 10.9591 214.93 9.86153C214.93 8.76395 214.494 7.71132 213.718 6.93522C212.942 6.15911 211.89 5.7231 210.792 5.7231Z" fill="#FF3C32"/>
<path d="M180.945 0.812685H159.748V14.0001H181.132C182.026 14.0032 182.912 13.8243 183.735 13.4743C184.558 13.1244 185.302 12.6106 185.92 11.9644C186.538 11.3181 187.019 10.5528 187.332 9.71501C187.646 8.87723 187.785 7.98446 187.743 7.09098C187.631 5.37256 186.863 3.76294 185.597 2.59456C184.332 1.42619 182.667 0.788312 180.945 0.812685ZM174.016 10.7045H170.811V4.11333H174.016C174.89 4.11333 175.728 4.46055 176.346 5.07859C176.964 5.69664 177.311 6.53489 177.311 7.40894C177.311 8.28298 176.964 9.12123 176.346 9.73928C175.728 10.3573 174.89 10.7045 174.016 10.7045Z" fill="#FF3C32"/>
<path d="M147.53 14H158.593L153.142 0.8125H135.478L130.027 14H138.829L139.707 11.8752H146.647L147.53 14ZM140.671 9.54357L143.195 3.48734L145.718 9.54357H140.671Z" fill="#FF3C32"/>
<path d="M81.003 0.812328C79.2857 0.795688 77.6272 1.43689 76.3678 2.60436C75.1083 3.77184 74.3435 5.37705 74.2301 7.09063C74.1877 7.9824 74.3268 8.87349 74.639 9.70992C74.9512 10.5463 75.4299 11.3107 76.0461 11.9567C76.6624 12.6027 77.4033 13.1168 78.2241 13.468C79.045 13.8192 79.9285 14.0001 80.8213 13.9998H99.6915V10.7042H89.835C88.9609 10.7042 88.1227 10.357 87.5046 9.73892C86.8866 9.12088 86.5394 8.28263 86.5394 7.40858C86.5394 6.53453 86.8866 5.69628 87.5046 5.07824C88.1227 4.46019 88.9609 4.11298 89.835 4.11298H99.7117V0.812328H81.003Z" fill="#FF3C32"/>
<path d="M117.809 0.8125V5.72815H112.434V0.8125H101.371V14H112.434V9.08936H117.809V14H128.871V0.8125H117.809Z" fill="#FF3C32"/>
<path d="M60.9198 5.75843C60.9198 4.44669 60.3987 3.18867 59.4712 2.26113C58.5436 1.33359 57.2856 0.8125 55.9739 0.8125H33.3438V14H44.4115V10.7044H45.9811L48.7316 14H59.5521L56.736 10.6236C57.8996 10.4463 58.9613 9.8582 59.7288 8.96574C60.4963 8.07328 60.9188 6.9355 60.9198 5.75843ZM48.8528 7.40875H44.4115V4.11315H48.8528C49.0768 4.10074 49.3011 4.13417 49.5118 4.21137C49.7225 4.28858 49.9152 4.40794 50.0782 4.56217C50.2412 4.71641 50.3711 4.90226 50.4598 5.10838C50.5485 5.3145 50.5943 5.53654 50.5943 5.76095C50.5943 5.98536 50.5485 6.20741 50.4598 6.41352C50.3711 6.61964 50.2412 6.8055 50.0782 6.95973C49.9152 7.11396 49.7225 7.23332 49.5118 7.31053C49.3011 7.38773 49.0768 7.42116 48.8528 7.40875Z" fill="#FF3C32"/>
</g>
<defs>
<clipPath id="clip0">
<rect width="214.931" height="14" fill="white"/>
</clipPath>
</defs>
</svg>
